<svg width="162" height="56" viewBox="0 0 162 56" fill="none" xmlns="http://www.w3.org/2000/svg">
<g filter="url(#filter0_d)">
<rect x="4" width="154" height="48" rx="24" fill="#F9D100"/>
<path d="M42.02 29.2L41.8 26.68L43.34 26.6C44.4067 26.5333 44.94 25.9733 44.94 24.92V14.9H48.04V24.88C48.04 27.52 46.64 28.9333 43.84 29.12L42.02 29.2ZM55.3409 29.22C54.2876 29.22 53.3676 29.0133 52.5809 28.6C51.8076 28.1733 51.2076 27.58 50.7809 26.82C50.3543 26.0467 50.1409 25.1333 50.1409 24.08C50.1409 23.04 50.3543 22.14 50.7809 21.38C51.2076 20.6067 51.8076 20.0133 52.5809 19.6C53.3676 19.1867 54.2876 18.98 55.3409 18.98C56.3943 18.98 57.3076 19.1867 58.0809 19.6C58.8676 20.0133 59.4743 20.6067 59.9009 21.38C60.3409 22.14 60.5609 23.04 60.5609 24.08C60.5609 25.1333 60.3409 26.0467 59.9009 26.82C59.4743 27.58 58.8676 28.1733 58.0809 28.6C57.3076 29.0133 56.3943 29.22 55.3409 29.22ZM55.3409 26.96C55.9809 26.96 56.5009 26.7267 56.9009 26.26C57.3143 25.7933 57.5209 25.0667 57.5209 24.08C57.5209 23.1067 57.3143 22.3933 56.9009 21.94C56.5009 21.4733 55.9809 21.24 55.3409 21.24C54.7009 21.24 54.1809 21.4733 53.7809 21.94C53.3809 22.3933 53.1809 23.1067 53.1809 24.08C53.1809 25.0667 53.3809 25.7933 53.7809 26.26C54.1809 26.7267 54.7009 26.96 55.3409 26.96ZM62.2783 17.28V14.46H65.5383V17.28H62.2783ZM62.3983 29V19.18H65.4183V29H62.3983ZM67.7498 29V19.18H70.7098V20.62C71.0432 20.0867 71.4898 19.68 72.0498 19.4C72.6098 19.12 73.2365 18.98 73.9298 18.98C75.0898 18.98 75.9565 19.32 76.5298 20C77.1032 20.6667 77.3898 21.7 77.3898 23.1V29H74.3698V23.24C74.3698 22.56 74.2432 22.0733 73.9898 21.78C73.7365 21.4733 73.3632 21.32 72.8698 21.32C72.2298 21.32 71.7165 21.52 71.3298 21.92C70.9565 22.32 70.7698 22.8533 70.7698 23.52V29H67.7498ZM91.5108 29.22C89.5108 29.22 87.9841 28.7067 86.9308 27.68C85.8908 26.6533 85.3708 25.1267 85.3708 23.1V14.9H88.4708V23.12C88.4708 24.2667 88.7308 25.1333 89.2508 25.72C89.7708 26.2933 90.5241 26.58 91.5108 26.58C93.5241 26.58 94.5308 25.4267 94.5308 23.12V14.9H97.5908V23.1C97.5908 25.1267 97.0774 26.6533 96.0508 27.68C95.0241 28.7067 93.5108 29.22 91.5108 29.22ZM103.834 29.22C102.967 29.22 102.161 29.12 101.414 28.92C100.667 28.72 100.047 28.4467 99.5541 28.1L100.274 26.14C100.767 26.4467 101.327 26.6933 101.954 26.88C102.594 27.0533 103.227 27.14 103.854 27.14C104.414 27.14 104.827 27.0533 105.094 26.88C105.361 26.6933 105.494 26.4533 105.494 26.16C105.494 25.6933 105.154 25.4 104.474 25.28L102.374 24.9C101.534 24.7533 100.894 24.4533 100.454 24C100.014 23.5467 99.7941 22.9533 99.7941 22.22C99.7941 21.5533 99.9807 20.98 100.354 20.5C100.727 20.02 101.241 19.6467 101.894 19.38C102.547 19.1133 103.301 18.98 104.154 18.98C104.861 18.98 105.547 19.0733 106.214 19.26C106.881 19.4333 107.454 19.7133 107.934 20.1L107.174 22.04C106.774 21.7467 106.294 21.5067 105.734 21.32C105.187 21.1333 104.674 21.04 104.194 21.04C103.594 21.04 103.161 21.14 102.894 21.34C102.627 21.5267 102.494 21.7667 102.494 22.06C102.494 22.5267 102.807 22.82 103.434 22.94L105.534 23.32C106.401 23.4667 107.061 23.76 107.514 24.2C107.967 24.6267 108.194 25.2133 108.194 25.96C108.194 26.9867 107.794 27.7867 106.994 28.36C106.194 28.9333 105.141 29.22 103.834 29.22Z" fill="black"/>
</g>
<defs>
<filter id="filter0_d" x="0" y="0" width="162" height="56" filterUnits="userSpaceOnUse" color-interpolation-filters="sRGB">
<feFlood flood-opacity="0" result="BackgroundImageFix"/>
<feColorMatrix in="SourceAlpha" type="matrix" values="0 0 0 0 0 0 0 0 0 0 0 0 0 0 0 0 0 0 127 0"/>
<feOffset dy="4"/>
<feGaussianBlur stdDeviation="2"/>
<feColorMatrix type="matrix" values="0 0 0 0 0 0 0 0 0 0 0 0 0 0 0 0 0 0 0.16 0"/>
<feBlend mode="normal" in2="BackgroundImageFix" result="effect1_dropShadow"/>
<feBlend mode="normal" in="SourceGraphic" in2="effect1_dropShadow" result="shape"/>
</filter>
</defs>
</svg>
