<svg width="27" height="33" viewBox="0 0 27 33" fill="none" xmlns="http://www.w3.org/2000/svg">
<path d="M10.2603 26.4022C9.91419 26.0702 9.9987 25.7967 9.71166 24.7217C9.57972 24.2276 5.43746 15.7074 5.43746 15.7074C5.18839 14.714 5 13.6977 5 12.6725C5 11.51 5 9.34348 7.67496 6.40786C8.37658 5.76272 9.25835 5.49696 10.1599 5.23922C11.6699 4.80751 13.3812 5.02795 14.9002 5.36671C16.6929 5.76649 18.1912 6.93114 19.3968 8.27061C21.579 10.0599 20.9195 14.3505 20.8633 14.8362C20.7623 14.9948 17 25.6567 16.876 25.7967C16.616 26.0902 16.2592 26.1632 15.8791 26.2393C14.8256 26.4505 13.7541 26.1827 12.695 26.1827C11.8752 26.1827 11.0578 26.1981 10.2603 26.4022ZM10.2603 26.4022C9.93649 26.4852 9.25986 26.553 9.25986 27.0114C9.38895 27.8637 16.6967 27.0539 16.9262 27.2805C17.5665 27.9129 17.0424 28.6191 15.4704 28.6687C14.4159 28.9248 9.9555 28.2174 9.71166 28.6191C9.50027 28.7235 8.80486 30.057 13.5341 29.7523C15.4704 29.6276 16.9405 29.6413 16.9405 30.0711C16.9405 30.7926 15.5516 30.8997 15.0903 30.8997C14.3595 30.8997 13.6323 30.9635 12.9066 30.9635C12.711 30.9635 9.52117 30.9292 9.9987 31.5188C10.4762 32.1083 10.4762 31.9904 15.371 31.9904" stroke="white" stroke-linecap="round" stroke-linejoin="round"/>
<path d="M11.3273 16.2111C11.8106 17.0743 12.957 18.0276 13.0274 18.3185C13.0274 18.0489 13.835 17.5542 14.0339 17.3668C14.3537 17.0654 14.5484 16.879 14.8929 16.5714C15.2041 16.2934 15.1147 16.2111 15.7377 15.5655C16.1245 15.1646 16.1601 14.5596 15.3153 14.0566C14.6113 13.8048 13.617 14.9421 13.3826 15.2443C13.3313 15.3106 12.4529 13.6797 11.5136 14.0566C10.6381 14.0566 11.0975 15.8007 11.3273 16.2111Z" fill="white"/>
<path d="M13.2727 26C13.2395 24.6072 13.1204 23.2443 13.1204 21.8533C13.1204 21.3548 13.1204 20.8563 13.1204 20.3578C13.1204 20.0696 13.0443 19.796 13.0443 19.5043C13.0443 19.1266 13.1166 18.6868 13.0274 18.3185M13.0274 18.3185C12.957 18.0276 11.8106 17.0743 11.3273 16.2111C11.0975 15.8007 10.6381 14.0566 11.5136 14.0566C12.4529 13.6797 13.3313 15.3106 13.3826 15.2443C13.617 14.9421 14.6113 13.8048 15.3153 14.0566C16.1601 14.5596 16.1245 15.1646 15.7377 15.5655C15.1147 16.2111 15.2041 16.2934 14.8929 16.5714C14.5484 16.879 14.3537 17.0654 14.0339 17.3668C13.835 17.5542 13.0274 18.0489 13.0274 18.3185Z" stroke="white" stroke-linecap="round" stroke-linejoin="round"/>
<rect width="3.16716" height="0.8" rx="0.4" transform="matrix(0.828426 -0.560099 0.548611 0.836078 21.4944 6.1377)" fill="white"/>
<rect width="3.15419" height="0.8" rx="0.4" transform="matrix(0.981464 -0.191646 0.186196 0.982513 22.7959 9.87305)" fill="white"/>
<rect width="3.19419" height="0.8" rx="0.4" transform="matrix(0.346313 -0.938119 0.934669 0.355519 17.7686 3.86938)" fill="white"/>
<rect width="3.2" height="0.8" rx="0.4" transform="matrix(0.00198847 -0.999998 0.999998 0.00204887 11.177 3.19995)" fill="white"/>
<rect width="3.18031" height="0.8" rx="0.4" transform="matrix(-0.639579 -0.768725 0.75921 -0.650846 5.53345 5.64502)" fill="white"/>
<rect width="3.16056" height="0.8" rx="0.4" transform="matrix(-0.909371 -0.415987 0.405769 -0.913976 2.87402 11.4453)" fill="white"/>
</svg>
