<svg width="272" height="162" viewBox="0 0 272 162" fill="none" xmlns="http://www.w3.org/2000/svg">
<g clip-path="url(#clip0)">
<path d="M251.146 128.103C250.843 128.833 250.541 129.554 250.239 130.266C249.769 131.371 249.305 132.454 248.847 133.516C248.643 133.987 248.44 134.449 248.241 134.911C245.995 140.047 243.897 144.59 242.116 148.326C240.499 151.711 238.099 154.547 235.167 156.538C232.234 158.528 228.878 159.599 225.448 159.639L185.836 160.121H185.418L182.023 160.162L179.118 160.197L170.211 160.306H169.85L165.316 160.361H165.177L137.228 160.7L112.28 160.992L109.378 161.028L91.355 161.247H91.3341L79.6451 161.387H79.5197L42.5589 161.834L31.502 161.969C30.5606 161.981 29.6193 161.928 28.6836 161.811C28.3649 161.77 28.0463 161.723 27.7302 161.668C22.5735 160.777 17.8451 157.936 14.3329 153.617C9.57633 147.762 6.11534 140.93 3.7906 133.516C3.45451 132.447 3.14106 131.363 2.85025 130.266C-5.19753 99.8197 4.6134 60.5394 22.271 34.2532C23.0111 33.1541 23.7634 32.0822 24.5278 31.0376L24.5461 31.0142C29.9766 23.554 36.0653 17.3215 42.5511 12.8898C54.0442 5.02324 66.778 2.80739 79.3029 9.4111C89.9001 15.0004 99.7946 17.6285 109.386 18.3417C110.355 18.4119 111.324 18.4645 112.288 18.4967C134.29 19.2714 154.909 10.3992 179.123 4.67244C180.087 4.44443 181.053 4.21933 182.028 4.00593C199.301 0.158883 218.464 -1.86988 241.251 2.3952C243.619 2.82804 245.955 3.45333 248.241 4.26611C249.246 4.62859 250.214 5.01837 251.146 5.43542C262.022 10.3875 267.954 19.5374 270.475 31.0025C270.714 32.0666 270.92 33.1492 271.094 34.2503C275.563 61.8286 262.474 100.948 251.146 128.103Z" fill="#F2F2F2"/>
<path opacity="0.1" d="M129.825 130.265C129.72 131.358 129.557 132.444 129.337 133.515H153.812V130.265H129.825ZM109.386 148.626L112.288 148.6V140.569C111.292 140.52 110.323 140.47 109.386 140.417V148.626ZM48.5453 130.265V133.515H100.395V130.265H48.5453ZM270.488 31.0131H251.158V5.43727C250.227 5.01437 249.258 4.6246 248.254 4.26796V31.0131H182.027V3.99609C181.053 4.20949 180.087 4.43459 179.123 4.6626V31.0131H112.288V18.4868C111.324 18.4547 110.355 18.4021 109.386 18.3319V31.0131H42.5506V12.8887C36.0649 17.3205 29.9761 23.5529 24.5456 31.0131H24.5273V31.0365C23.7611 32.0889 23.0089 33.1608 22.2705 34.2522H24.5273V130.265H2.84717C3.13624 131.362 3.44968 132.445 3.78751 133.515H24.5247V160.883C25.5681 161.24 26.6331 161.513 27.7115 161.699C28.0275 161.754 28.3462 161.801 28.6649 161.842C29.6006 161.959 30.5418 162.012 31.4833 162L42.5402 161.865V133.51H109.386V161.05L112.288 161.015V133.515H179.123V160.223L182.027 160.188V133.515H248.241V134.91C248.439 134.448 248.643 133.986 248.847 133.515C249.305 132.453 249.769 131.37 250.239 130.265C250.54 129.555 250.842 128.834 251.145 128.101V34.2638H271.107C270.931 33.1549 270.724 32.0714 270.488 31.0131ZM42.5506 130.265V34.2522H109.386V130.265H42.5506ZM112.293 130.265V34.2522H179.123V130.265H112.293ZM248.246 130.265H182.027V34.2522H248.241L248.246 130.265Z" fill="black"/>
<path d="M225.445 156.001V159.802L185.762 160.211L185.339 160.22L170.257 160.375L169.897 160.381L165.313 160.424H165.177L137.233 160.714L91.3623 161.19H91.3231L79.6603 161.313L79.5349 161.316L27.7114 161.848V157.463L39.8967 149.278L64.3457 149.05L64.8681 149.047L65.0405 149.044L65.5629 149.035L77.3016 148.927L77.8266 148.924L77.9938 148.921L78.5162 148.918L82.2802 148.883L82.3794 148.88L91.6653 148.793H91.7411L164.2 148.109L165.973 148.094H166.151L167.504 148.079L177.339 147.989L177.861 147.98L178.344 147.974H178.595L181.654 147.948L182.26 147.939L183.072 147.933L185.619 147.907L189.66 147.869L190.182 147.863L191.091 147.857H191.261L210.776 147.67L225.445 156.001Z" fill="#65617D"/>
<path opacity="0.2" d="M225.445 156.001V159.802L185.762 160.211L185.339 160.22L170.257 160.375L169.897 160.381L165.313 160.424H165.177L137.233 160.714L91.3623 161.19H91.3231L79.6603 161.313L79.5349 161.316L27.7114 161.848V157.463L39.8967 149.278L64.3457 149.05L64.8681 149.047L65.0405 149.044L65.5629 149.035L77.3016 148.927L77.8266 148.924L77.9938 148.921L78.5162 148.918L82.2802 148.883L82.3794 148.88L91.6653 148.793H91.7411L164.2 148.109L165.973 148.094H166.151L167.504 148.079L177.339 147.989L177.861 147.98L178.344 147.974H178.595L181.654 147.948L182.26 147.939L183.072 147.933L185.619 147.907L189.66 147.869L190.182 147.863L191.091 147.857H191.261L210.776 147.67L225.445 156.001Z" fill="black"/>
<path d="M77.3435 141.388V148.547C77.3436 148.886 77.2578 149.218 77.096 149.505C76.9341 149.792 76.7029 150.021 76.4293 150.167C76.2255 150.277 76.0027 150.337 75.7762 150.342L66.6601 150.558C66.4167 150.565 66.1752 150.508 65.9549 150.392C65.6763 150.249 65.4404 150.019 65.2751 149.731C65.1097 149.442 65.022 149.106 65.0223 148.763V141.388H77.3435Z" fill="#3F3D56"/>
<path opacity="0.1" d="M77.3435 141.388V148.547C77.3436 148.886 77.2578 149.218 77.096 149.505C76.9341 149.792 76.7029 150.021 76.4293 150.167C76.2255 150.277 76.0027 150.337 75.7762 150.342L66.6601 150.558C66.4167 150.565 66.1752 150.508 65.9549 150.392C65.6763 150.249 65.4404 150.019 65.2751 149.731C65.1097 149.442 65.022 149.106 65.0223 148.763V141.388H77.3435Z" fill="black"/>
<path d="M77.8658 141.388V148.547C77.866 148.886 77.7801 149.218 77.6183 149.505C77.4565 149.792 77.2253 150.021 76.9516 150.167C76.7478 150.277 76.525 150.337 76.2986 150.342L67.1825 150.558C66.939 150.565 66.6975 150.508 66.4772 150.392C66.1987 150.249 65.9627 150.019 65.7974 149.731C65.6321 149.442 65.5444 149.106 65.5447 148.763V141.388H77.8658Z" fill="#3F3D56"/>
<path d="M190.182 141.385H177.861V150.593H190.182V141.385Z" fill="#3F3D56"/>
<path opacity="0.1" d="M190.182 141.385H177.861V150.593H190.182V141.385Z" fill="black"/>
<path d="M189.66 141.385H177.339V150.593H189.66V141.385Z" fill="#3F3D56"/>
<path opacity="0.1" d="M77.8631 141.385V142.838L65.542 143.206V141.385H77.8631Z" fill="black"/>
<path d="M99.6113 91.3119V140.482C99.6081 140.782 99.5019 141.069 99.3147 141.284C99.1275 141.499 98.8736 141.625 98.6056 141.636L48.5453 143.127H48.5323C48.2597 143.123 47.9992 143.001 47.8064 142.785C47.6137 142.569 47.5039 142.278 47.5005 141.973V91.3119C47.5039 91.0069 47.6137 90.7154 47.8064 90.4996C47.9992 90.2839 48.2597 90.161 48.5323 90.1572H98.5795C98.8521 90.161 99.1126 90.2839 99.3053 90.4996C99.4981 90.7154 99.6079 91.0069 99.6113 91.3119Z" fill="#65617D"/>
<path opacity="0.1" d="M48.5453 90.1572V143.127H48.5323C48.2597 143.123 47.9992 143.001 47.8064 142.785C47.6137 142.569 47.5039 142.278 47.5005 141.973V91.3119C47.5039 91.0069 47.6137 90.7154 47.8064 90.4996C47.9992 90.2839 48.2597 90.161 48.5323 90.1572H48.5453Z" fill="black"/>
<path d="M50.8282 93.2968H97.1925V136.635L50.8282 137.804V93.2968Z" fill="#6C63FF"/>
<path opacity="0.1" d="M189.66 141.385V143.259L177.339 142.89V141.385H189.66Z" fill="black"/>
<path d="M205.923 91.3119V141.973C205.919 142.28 205.807 142.574 205.612 142.79C205.416 143.006 205.153 143.127 204.878 143.127L154.807 141.636C154.539 141.625 154.285 141.499 154.098 141.284C153.911 141.069 153.804 140.782 153.801 140.482V91.3119C153.805 91.0069 153.914 90.7154 154.107 90.4996C154.3 90.2839 154.56 90.161 154.833 90.1572H204.88C205.155 90.158 205.418 90.2795 205.613 90.4956C205.808 90.7116 205.919 91.0048 205.923 91.3119Z" fill="#65617D"/>
<path opacity="0.1" d="M205.923 91.3119V141.973C205.919 142.28 205.807 142.574 205.612 142.79C205.416 143.006 205.153 143.127 204.878 143.127V90.1572C205.153 90.1572 205.416 90.2784 205.612 90.4945C205.807 90.7107 205.919 91.0043 205.923 91.3119Z" fill="black"/>
<path d="M202.589 93.2968H156.225V136.635L202.589 137.804V93.2968Z" fill="#6C63FF"/>
<path d="M152.506 91.3119V140.482C152.503 140.782 152.396 141.069 152.209 141.284C152.022 141.499 151.768 141.625 151.5 141.636L101.44 143.127C101.165 143.127 100.901 143.006 100.706 142.79C100.51 142.574 100.398 142.28 100.395 141.973V91.3119C100.398 91.0069 100.508 90.7154 100.701 90.4996C100.894 90.2839 101.154 90.161 101.427 90.1572H151.474C151.746 90.161 152.007 90.2839 152.2 90.4996C152.393 90.7154 152.502 91.0069 152.506 91.3119Z" fill="#65617D"/>
<path d="M103.723 93.2968H150.087V136.635L103.723 137.804V93.2968Z" fill="#6C63FF"/>
<path opacity="0.1" d="M225.445 156.001V159.802L185.762 160.211L185.339 160.22L170.257 160.375L169.897 160.38L165.313 160.424H165.177L137.233 160.714L91.3623 161.19H91.3231L79.6603 161.313L79.5349 161.316L27.7114 161.848V157.463L80.6084 157.074H80.7338L91.4407 156.992H91.4903L165.433 156.446H165.509L165.553 156.443H165.676L166.927 156.434H167.308L186.766 156.288L187.915 156.282L188.171 156.279L225.445 156.001Z" fill="black"/>
<path d="M127.276 102.163C134.681 102.163 140.684 95.4451 140.684 87.1579C140.684 78.8707 134.681 72.1526 127.276 72.1526C119.871 72.1526 113.868 78.8707 113.868 87.1579C113.868 95.4451 119.871 102.163 127.276 102.163Z" fill="#FBBEBE"/>
<path d="M140.686 110.255C140.686 110.255 114.696 113.763 117.178 110.255C118.076 108.986 118.324 105.227 118.275 100.944C118.259 99.6433 118.217 98.2957 118.157 96.9539C117.87 90.5227 117.178 84.2376 117.178 84.2376C117.178 84.2376 139.903 72.2521 137.29 81.7528C136.246 85.5911 136.588 90.9816 137.382 96.0418C137.614 97.5181 137.883 98.9651 138.165 100.339C138.854 103.69 139.695 107 140.686 110.255Z" fill="#FBBEBE"/>
<path d="M132.205 109.065C135.211 108.442 138.395 107.311 141.224 108.615C141.968 108.957 142.653 109.457 143.416 109.743C144.178 110.03 145.014 110.1 145.808 110.302C148.598 111.009 150.86 113.386 152.312 116.148C153.765 118.911 154.517 122.036 155.253 125.129L157.056 132.679C158.623 139.242 160.19 145.861 160.553 152.645C138.734 154.043 116.865 154.183 95.0322 153.063C96.4532 150.041 97.9055 146.834 97.7853 143.417C97.6652 139.999 95.9073 136.629 96.542 133.261C96.9469 131.115 98.2581 129.347 99.06 127.35C101.346 121.644 99.5668 113.964 103.584 109.62C105.392 107.668 108.025 106.928 110.54 107.022C113.748 107.142 117.031 108.261 120.205 108.808C124.269 109.498 128.109 109.907 132.205 109.065Z" fill="#FF6584"/>
<path opacity="0.1" d="M166.397 141.563L166.371 141.981V142.011L166.326 142.683L165.979 148.094L165.558 154.613L165.438 156.449L165.177 160.378V160.427L137.228 160.72L91.3624 161.275V161.521H91.3258V161.275V161.193L91.4434 156.995L91.668 148.793L91.8613 141.838L91.8796 141.145C91.891 140.727 91.9785 140.316 92.1366 139.937C92.2948 139.558 92.5204 139.219 92.7996 138.941C93.0787 138.662 93.4056 138.451 93.7603 138.319C94.115 138.187 94.4901 138.137 94.8626 138.172C96.0954 138.289 97.6966 138.432 99.6113 138.584L100.395 138.649C111.452 139.508 131.886 140.619 152.506 139.233C152.939 139.207 153.376 139.178 153.812 139.143C157.009 138.918 160.203 138.628 163.367 138.266C163.767 138.219 164.171 138.271 164.551 138.418C164.931 138.564 165.278 138.803 165.566 139.116C165.855 139.429 166.079 139.809 166.223 140.229C166.366 140.649 166.426 141.1 166.397 141.549V141.563Z" fill="black"/>
<path d="M91.3545 161.521V161.275L137.228 160.717L165.177 160.424H165.255V160.375L165.516 156.446L165.629 154.692L166.057 148.082L166.394 142.85V142.721C166.41 142.48 166.4 142.238 166.365 141.999C166.367 141.989 166.367 141.979 166.365 141.97C166.294 141.476 166.114 141.01 165.843 140.613C165.555 140.2 165.178 139.877 164.748 139.672C164.317 139.467 163.847 139.389 163.382 139.444C160.219 139.806 157.025 140.096 153.827 140.321C153.391 140.356 152.955 140.385 152.521 140.412C131.902 141.783 111.467 140.672 100.411 139.827L99.6269 139.763C97.7123 139.611 96.1111 139.47 94.8782 139.35C94.1999 139.286 93.5245 139.506 92.9823 139.966C92.4402 140.427 92.0696 141.096 91.9422 141.844C91.9158 142.002 91.9001 142.162 91.8952 142.323L91.7176 148.801L91.4747 157.007L91.3597 161.205V161.287V161.532L91.3545 161.521Z" fill="#3F3D56"/>
<path opacity="0.1" d="M166.475 143.613L166.154 148.094L165.676 154.774L165.556 156.446L165.294 160.191L165.279 160.378V160.427L165.239 160.86L165.268 160.427H165.192L137.243 160.72L91.3623 161.275V161.193L91.4903 156.995L91.7515 148.793L91.9187 143.341C91.9269 143.031 92.0043 142.728 92.1439 142.46C92.2836 142.191 92.4809 141.967 92.718 141.806C93.0138 141.603 93.3596 141.511 93.7053 141.543C94.2539 141.593 94.9278 141.651 95.714 141.715C96.9913 141.821 98.5664 141.943 100.4 142.072C103.796 142.312 108.056 142.569 112.938 142.779C126.521 143.364 144.857 143.56 162.275 141.853C163.058 141.777 163.868 141.692 164.66 141.607C164.973 141.572 165.289 141.639 165.569 141.8C165.648 141.844 165.723 141.897 165.793 141.958C166.021 142.142 166.201 142.39 166.316 142.677C166.342 142.734 166.364 142.794 166.381 142.855C166.459 143.098 166.491 143.356 166.475 143.613Z" fill="black"/>
<path opacity="0.1" d="M77.8658 147.615V148.547C77.866 148.886 77.7801 149.218 77.6183 149.505C77.4565 149.792 77.2253 150.021 76.9516 150.167L66.4772 150.392C66.1987 150.249 65.9627 150.019 65.7974 149.731C65.6321 149.442 65.5444 149.106 65.5447 148.763V147.886L77.8658 147.615Z" fill="black"/>
<path d="M77.9938 150.716L64.3457 151.008V148.474L77.9938 148.182V150.716Z" fill="#3F3D56"/>
<path opacity="0.1" d="M77.9938 150.716L64.3457 151.008V148.474L77.9938 148.182V150.716Z" fill="black"/>
<path d="M78.5162 150.716L64.8682 151.008V148.474L78.5162 148.182V150.716Z" fill="#3F3D56"/>
<path opacity="0.1" d="M177.417 148.199V149.132C177.417 149.471 177.503 149.803 177.665 150.09C177.826 150.376 178.058 150.606 178.331 150.751L188.806 150.976C189.084 150.833 189.32 150.604 189.485 150.315C189.651 150.027 189.738 149.691 189.738 149.348V148.471L177.417 148.199Z" fill="black"/>
<path opacity="0.1" d="M177.286 151.301L190.934 151.593V149.059L177.286 148.766V151.301Z" fill="black"/>
<path d="M176.764 151.301L190.412 151.593V149.059L176.764 148.766V151.301Z" fill="#3F3D56"/>
<path d="M118.794 91.7562C118.815 93.8025 117.969 95.7319 117.251 97.6232C114.635 104.513 113.503 111.994 113.944 119.463C114.134 122.679 114.618 125.894 114.134 129.081C113.651 132.267 111.932 135.445 109.172 136.36C113.75 139.415 119.949 139.093 124.259 135.582C126.555 133.711 128.266 131.101 129.94 128.534C129.741 133.145 128.548 137.633 126.463 141.616C130.232 141.242 133.889 139.987 137.196 137.932C140.504 135.876 143.389 133.066 145.665 129.683C146.791 127.985 147.77 126.119 148.204 124.061C149.011 120.261 147.885 116.312 147.026 112.514C146.307 109.34 145.769 106.118 145.414 102.868C145.302 101.827 145.21 100.757 145.44 99.7397C145.701 98.5499 146.399 97.5443 146.913 96.4598C148.376 93.3786 148.41 89.6485 147.66 86.2633C146.911 82.8782 145.443 79.7561 143.988 76.672C142.823 74.1989 141.559 71.6118 139.427 70.1589C138.095 69.2527 136.554 68.8756 135.018 68.5102L128.391 66.9228C126.941 66.575 125.45 66.2271 123.985 66.4814C121.511 66.9141 119.769 68.9136 118.238 70.9658C117.039 72.5619 114.108 75.5582 113.902 77.6484C113.714 79.5748 115.234 82.8022 115.493 84.8338C115.832 87.4648 116.073 86.5878 117.4 88.2015C118.238 89.2012 118.779 90.3559 118.794 91.7562Z" fill="#3F3D56"/>
<path d="M78.43 97.518H52.4138C52.3792 97.518 52.346 97.5026 52.3215 97.4752C52.297 97.4478 52.2832 97.4106 52.2832 97.3719C52.2832 97.3331 52.297 97.2959 52.3215 97.2685C52.346 97.2411 52.3792 97.2257 52.4138 97.2257H78.43C78.4647 97.2257 78.4979 97.2411 78.5224 97.2685C78.5469 97.2959 78.5606 97.3331 78.5606 97.3719C78.5606 97.4106 78.5469 97.4478 78.5224 97.4752C78.4979 97.5026 78.4647 97.518 78.43 97.518Z" fill="#F2F2F2"/>
<path d="M78.43 100.149H52.4138C52.3792 100.149 52.346 100.134 52.3215 100.106C52.297 100.079 52.2832 100.042 52.2832 100.003C52.2832 99.9641 52.297 99.9269 52.3215 99.8995C52.346 99.8721 52.3792 99.8567 52.4138 99.8567H78.43C78.4647 99.8567 78.4979 99.8721 78.5224 99.8995C78.5469 99.9269 78.5606 99.9641 78.5606 100.003C78.5606 100.042 78.5469 100.079 78.5224 100.106C78.4979 100.134 78.4647 100.149 78.43 100.149Z" fill="#F2F2F2"/>
<path d="M78.43 102.78H52.4138C52.3792 102.78 52.346 102.765 52.3215 102.737C52.297 102.71 52.2832 102.673 52.2832 102.634C52.2832 102.595 52.297 102.558 52.3215 102.53C52.346 102.503 52.3792 102.488 52.4138 102.488H78.43C78.4647 102.488 78.4979 102.503 78.5224 102.53C78.5469 102.558 78.5606 102.595 78.5606 102.634C78.5606 102.673 78.5469 102.71 78.5224 102.737C78.4979 102.765 78.4647 102.78 78.43 102.78Z" fill="#F2F2F2"/>
</g>
<defs>
<clipPath id="clip0">
<rect width="272" height="162" fill="white"/>
</clipPath>
</defs>
</svg>
