<svg width="280" height="186" viewBox="0 0 280 186" fill="none" xmlns="http://www.w3.org/2000/svg">
<g clip-path="url(#clip0)">
<path d="M228.111 45.6796L86.4663 0L52.2961 122.211L193.941 167.89L228.111 45.6796Z" fill="#F1F1F1"/>
<path d="M67.8536 186C105.328 186 135.707 182.538 135.707 178.267C135.707 173.996 105.328 170.533 67.8536 170.533C30.3791 170.533 0 173.996 0 178.267C0 182.538 30.3791 186 67.8536 186Z" fill="#3F3D56"/>
<path d="M74.152 20.3942H57.6808V46.1739H74.152V20.3942Z" fill="#2F2E41"/>
<path d="M60.864 32.2861C60.864 32.2861 61.4837 45.0137 56.004 45.5357C52.17 45.9008 63.481 57.1792 63.481 57.1792L73.201 42.7251C73.201 42.7251 65.915 43.5265 70.5841 34.6951L60.864 32.2861Z" fill="#FFB8B8"/>
<path opacity="0.1" d="M73.2015 42.7264L70.1301 47.2951L63.4804 57.179C63.4804 57.179 57.9275 51.6407 55.9224 48.2023C55.1691 46.9084 54.9143 45.912 55.6454 45.6175C55.6487 45.6152 55.6526 45.6141 55.6565 45.6146C55.7615 45.5723 55.8715 45.5463 55.9833 45.5372C55.9897 45.5356 55.9962 45.5347 56.0027 45.5343C56.322 45.5054 56.6361 45.4294 56.936 45.3082C61.4116 43.5117 60.8632 32.2863 60.8632 32.2863L70.5843 34.6956C67.4686 40.5878 69.6759 42.194 71.4899 42.6074C71.8881 42.6966 72.2935 42.7425 72.7002 42.7443C73.0077 42.7473 73.2015 42.7264 73.2015 42.7264Z" fill="black"/>
<path d="M76.0588 21.8328C74.2792 27.4916 71.5503 32.6476 65.9888 32.6476C60.4273 32.6476 56.2322 27.7962 55.9188 21.8328C55.5184 14.2128 60.299 10.9864 65.9888 11.0179C72.7104 11.0552 78.1708 15.1171 76.0588 21.8328Z" fill="#2F2E41"/>
<path d="M52.2655 113.791L54.8824 133.465C54.8824 133.465 52.6393 145.51 53.7609 153.941L54.8824 162.774H60.1163L61.6117 153.54C61.6117 153.54 63.1071 143.904 63.1071 139.487C63.1071 139.487 67.2195 119.412 64.6025 115.397L52.2655 113.791Z" fill="#FFB8B8"/>
<path d="M84.0426 112.587L81.4257 133.465C81.4257 133.465 83.6688 145.51 82.5473 153.941L81.4257 162.774H76.1918L74.6964 153.54C74.6964 153.54 73.201 143.904 73.201 139.487C73.201 139.487 69.0887 118.208 71.7056 114.193L84.0426 112.587Z" fill="#FFB8B8"/>
<path d="M78.8088 161.57C78.8088 161.57 81.7996 160.365 82.1734 161.971C82.5473 163.577 83.295 172.009 83.295 172.009C83.295 172.009 85.5381 175.622 87.0335 176.024C88.5289 176.425 91.8935 181.645 87.7812 182.046C83.6688 182.448 79.5565 180.842 79.5565 180.039C79.5565 179.236 78.0611 178.834 77.3134 178.834C76.5657 178.834 73.9487 177.63 74.3226 176.425C74.6964 175.221 75.818 161.168 75.818 161.168L78.8088 161.57Z" fill="#2F2E41"/>
<path d="M57.4994 161.57C57.4994 161.57 54.5086 160.365 54.1348 161.971C53.7609 163.577 53.0132 172.009 53.0132 172.009C53.0132 172.009 50.7701 175.622 49.2747 176.024C47.7793 176.425 44.4147 181.645 48.527 182.046C52.6394 182.448 56.7517 180.842 56.7517 180.039C56.7517 179.236 58.2471 178.834 58.9948 178.834C59.7425 178.834 62.3595 177.63 61.9856 176.425C61.6117 175.221 60.4902 161.168 60.4902 161.168L57.4994 161.57Z" fill="#2F2E41"/>
<path d="M66.4718 36.9978C70.753 36.9978 74.2236 33.2705 74.2236 28.6726C74.2236 24.0747 70.753 20.3474 66.4718 20.3474C62.1906 20.3474 58.72 24.0747 58.72 28.6726C58.72 33.2705 62.1906 36.9978 66.4718 36.9978Z" fill="#FFB8B8"/>
<path d="M95.632 74.4424C95.632 74.4424 79.9315 81.6702 78.436 74.0409C77.5164 69.2729 76.8919 64.4449 76.5666 59.5883C76.5651 59.5867 76.5631 59.5856 76.561 59.5853C76.3422 59.4425 68.6069 54.3444 70.1302 47.2951C70.4847 45.7681 71.1507 44.3448 72.0799 43.128C72.0799 43.128 72.3098 42.9674 72.7003 42.7443C73.1581 42.4817 73.6307 42.2502 74.1155 42.0513C76.7549 40.9716 81.1446 40.3618 82.1721 47.542C83.6677 57.9821 83.6677 69.2253 83.6677 69.2253C83.6677 69.2253 88.1543 72.0361 94.1365 69.2253C100.119 66.4145 106.101 68.0207 106.475 71.6346C106.849 75.2455 95.632 74.4424 95.632 74.4424Z" fill="#FFB8B8"/>
<path d="M56.0027 45.5343L55.9224 48.2023L55.0306 78.2794L54.8811 83.2764L41.7978 98.9366C41.7978 98.9366 39.1806 107.366 33.5723 108.571C27.964 109.775 37.3112 96.9289 37.3112 96.9289L50.0233 76.8517L50.0427 76.1765C50.1859 70.5512 49.7493 64.9262 48.741 59.4039C48.3679 57.3484 48.2959 55.243 48.5278 53.1636C49.0484 48.6842 52.4799 46.7419 54.5072 45.9775C54.8798 45.834 55.2599 45.7138 55.6455 45.6176C55.6487 45.6153 55.6526 45.6142 55.6566 45.6146C55.8255 45.57 55.939 45.5462 55.9834 45.5373C55.9897 45.5357 55.9962 45.5347 56.0027 45.5343Z" fill="#FFB8B8"/>
<path d="M76.9405 74.4424V76.0486C71.49 83.202 59.4259 79.8231 55.0307 78.2794C53.9976 77.9165 53.3883 77.6548 53.3883 77.6548C53.6121 77.1517 53.7392 76.6055 53.7622 76.0486V72.4377C53.7622 71.233 54.1333 72.0361 54.5072 71.6346C54.8811 71.233 53.3883 68.8238 53.3883 68.8238C49.6495 66.4145 51.8928 59.5883 51.8928 59.5883L54.5072 53.5651V45.9775C54.8798 45.834 55.2599 45.7138 55.6455 45.6176C55.6488 45.6152 55.6527 45.6142 55.6566 45.6146C55.7616 45.5724 55.8716 45.5463 55.9834 45.5373C55.9898 45.5357 55.9962 45.5347 56.0028 45.5343C56.3221 45.5055 56.6362 45.4294 56.9361 45.3082C57.6368 46.8609 59.16 48.9043 62.3588 49.1482C66.1891 49.4426 69.82 45.0078 71.49 42.6075C71.8881 42.6966 72.2936 42.7425 72.7003 42.7443C73.1581 42.4817 73.6307 42.2503 74.1155 42.0513L72.4538 49.5497C70.9832 53.4967 76.3755 59.3801 76.561 59.5853C76.5631 59.5856 76.5651 59.5867 76.5666 59.5883V64.0053L76.1927 68.8238L75.8188 70.0284L76.5666 71.233L76.1927 72.4377L76.5666 73.2408C76.9405 74.0409 76.9405 73.6423 76.9405 74.4424Z" fill="#D0CDE1"/>
<path d="M54.1348 77.2544L53.0132 76.8529C53.0132 76.8529 39.5546 112.988 48.527 114.594C57.4994 116.2 64.2287 119.011 65.7241 116.2C67.2195 113.39 66.4718 103.352 66.4718 103.352L67.9672 102.951C67.9672 102.951 65.3502 117.806 70.5841 116.602C75.818 115.397 90.3981 113.39 90.3981 111.784C90.3981 110.178 76.9395 75.4919 76.9395 75.4919C76.9395 75.4919 71.3318 79.2619 54.1348 77.2544Z" fill="#2F2E41"/>
<path d="M65.9888 13.2948C68.1841 13.2948 69.9638 11.3834 69.9638 9.02573C69.9638 6.66802 68.1841 4.75671 65.9888 4.75671C63.7935 4.75671 62.0138 6.66802 62.0138 9.02573C62.0138 11.3834 63.7935 13.2948 65.9888 13.2948Z" fill="#2F2E41"/>
<path d="M61.2188 6.749C61.2189 5.69074 61.5849 4.67022 62.246 3.8854C62.907 3.10058 63.8159 2.60741 64.7963 2.50154C64.6655 2.48759 64.533 2.47998 64.3988 2.47998C63.3446 2.47998 62.3335 2.92975 61.5881 3.73035C60.8426 4.53095 60.4238 5.61678 60.4238 6.749C60.4238 7.88121 60.8426 8.96706 61.5881 9.76765C62.3335 10.5682 63.3446 11.018 64.3988 11.018C64.533 11.018 64.6655 11.0104 64.7963 10.9965C63.8159 10.8906 62.907 10.3974 62.246 9.6126C61.585 8.82778 61.2189 7.80727 61.2188 6.749Z" fill="#2F2E41"/>
<path d="M62.788 17.9526C62.788 17.9526 62.705 17.4564 59.4588 18.7637C56.2126 20.0711 54.2668 29.7188 55.8899 35.3841C56.544 37.6671 56.0118 39.3132 55.1434 40.465C51.8844 44.787 53.1673 51.2785 57.9143 53.5011C58.0483 53.5638 58.185 53.6258 58.3245 53.6871L60.3533 54.9945C60.3533 54.9945 57.767 51.3396 59.0613 46.6644C60.1853 42.681 60.3241 38.4518 59.4641 34.3933C59.3156 33.7086 59.1469 33.0029 58.9553 32.2827C57.3322 26.1816 58.1216 26.8862 63.8024 20.7852C63.8024 20.7852 67.0486 23.3999 69.889 24.7073C72.7294 26.0146 75.164 27.322 73.1352 31.6799C71.1063 36.0377 66.2371 39.9598 69.4832 45.625C72.7294 51.2903 73.1352 49.1113 72.7294 51.2903L72.3236 53.4692L74.7583 50.8545L73.1352 54.3407C73.1352 54.3407 78.4102 54.3408 80.0333 49.9829L80.8449 50.8545C80.8449 50.8545 84.091 44.7535 78.0044 39.0882C78.0044 39.0882 75.9756 37.7809 78.816 33.423C81.6564 29.0651 79.4749 19.6957 75.823 17.9526C72.171 16.2094 62.788 17.9526 62.788 17.9526Z" fill="#2F2E41"/>
<path d="M104.948 85.7558L115.864 82.0831C115.26 77.2075 113.88 72.4795 111.786 68.1051L100.87 71.7778C103.432 75.9298 104.846 80.7763 104.948 85.7558Z" fill="#6C63FF"/>
<path d="M280 0.992798H126.568V68.2141H280V0.992798Z" fill="#3F3D56"/>
<path d="M148.619 26.0177H137.18C136.399 21.171 136.399 16.2164 137.18 11.3698H148.619C147.33 16.1543 147.33 21.2331 148.619 26.0177Z" fill="#FF6584"/>
<path d="M158.522 32.2573H169.962C170.742 27.4106 170.742 22.456 169.962 17.6094H158.522C159.811 22.3939 159.811 27.4727 158.522 32.2573Z" fill="#6C63FF"/>
<path d="M183.956 10.768C185.835 20.9349 186.37 31.3354 185.545 41.6626C185.328 44.3515 185.019 47.0291 184.616 49.6954C184.432 50.9076 184.223 52.114 184.008 53.3201C183.885 54.0112 183.627 54.8716 184.031 55.5221C184.82 56.7892 187.52 56.4585 188.71 56.4999C191.186 56.5859 193.666 56.6004 196.143 56.6468L203.594 56.7865L207.182 56.8537C208.404 56.8766 209.743 57.0801 210.956 56.9122C212.552 56.6912 212.163 54.896 212.139 53.5623C212.091 50.9256 212.026 48.2893 211.942 45.6535C211.613 35.2084 211.007 24.7789 210.124 14.3652C210.011 13.0366 210.082 11.4472 209.748 10.1626C209.614 9.64324 209.48 9.49309 208.955 9.39981C207.752 9.18611 206.318 9.41113 205.101 9.42023L201.031 9.45064L184.481 9.57434C184.373 9.57834 184.271 9.6271 184.196 9.71034C184.121 9.79357 184.079 9.90477 184.079 10.0205C184.079 10.1362 184.121 10.2474 184.196 10.3307C184.271 10.4139 184.373 10.4626 184.481 10.4667L198.047 10.3653L204.016 10.3207L207.271 10.2963C207.941 10.2913 208.566 10.0737 208.986 10.8644C209.251 11.3647 209.142 12.6159 209.193 13.198C210.004 22.5343 210.591 31.8887 210.957 41.2613C211.048 43.6035 211.125 45.9462 211.189 48.2894C211.215 49.2658 211.239 50.2422 211.261 51.2187C211.274 51.8045 211.286 52.3904 211.297 52.9764C211.309 53.5807 211.541 54.7651 211.337 55.3202C210.901 56.5039 208.959 55.9947 208.01 55.9769L204.698 55.9148L198.075 55.7907L191.451 55.6665C190.356 55.646 189.26 55.637 188.165 55.5869C187.802 55.5703 187.439 55.5516 187.076 55.5239C185.996 55.4413 184.834 55.7153 184.706 54.1129C184.627 53.124 185.13 51.7603 185.287 50.7711C185.465 49.654 185.626 48.5341 185.771 47.4114C186.043 45.3139 186.259 43.2094 186.42 41.0979C187.181 30.8753 186.621 20.5888 184.758 10.5308C184.654 9.96797 183.853 10.2062 183.956 10.768V10.768Z" fill="#F1F1F1"/>
<path d="M238.516 10.768C240.395 20.9349 240.93 31.3354 240.105 41.6626C239.888 44.3515 239.578 47.0291 239.176 49.6954C238.992 50.9076 238.783 52.114 238.568 53.3201C238.445 54.0112 238.187 54.8716 238.591 55.5221C239.379 56.7892 242.08 56.4585 243.27 56.4999C245.746 56.5859 248.226 56.6004 250.702 56.6468L258.154 56.7865L261.742 56.8537C262.964 56.8766 264.303 57.0801 265.516 56.9122C267.112 56.6912 266.723 54.896 266.699 53.5623C266.651 50.9256 266.585 48.2893 266.502 45.6535C266.173 35.2084 265.567 24.7789 264.684 14.3652C264.571 13.0366 264.641 11.4472 264.308 10.1626C264.173 9.64324 264.039 9.49309 263.514 9.39981C262.311 9.18611 260.878 9.41113 259.661 9.42023L255.591 9.45064L239.04 9.57434C238.933 9.57834 238.831 9.6271 238.756 9.71034C238.681 9.79357 238.639 9.90477 238.639 10.0205C238.639 10.1362 238.681 10.2474 238.756 10.3307C238.831 10.4139 238.933 10.4626 239.04 10.4667L252.606 10.3653L258.575 10.3207L261.831 10.2963C262.5 10.2913 263.126 10.0737 263.545 10.8644C263.811 11.3647 263.702 12.6159 263.753 13.198C264.563 22.5343 265.151 31.8887 265.517 41.2613C265.608 43.6035 265.685 45.9462 265.749 48.2894C265.775 49.2658 265.799 50.2422 265.821 51.2187C265.834 51.8045 265.846 52.3904 265.857 52.9764C265.868 53.5807 266.101 54.7651 265.897 55.3202C265.461 56.5039 263.519 55.9947 262.569 55.9769L259.258 55.9148L252.634 55.7907L246.011 55.6665C244.916 55.646 243.819 55.637 242.725 55.5869C242.362 55.5703 241.998 55.5516 241.636 55.5239C240.556 55.4413 239.394 55.7153 239.266 54.1129C239.186 53.124 239.69 51.7603 239.847 50.7711C240.025 49.654 240.186 48.5341 240.331 47.4114C240.603 45.3139 240.819 43.2094 240.98 41.0979C241.741 30.8753 241.181 20.5888 239.317 10.5308C239.214 9.96797 238.413 10.2062 238.516 10.768V10.768Z" fill="#F1F1F1"/>
<path d="M187.777 13.0648H193.272C193.38 13.0608 193.482 13.012 193.557 12.9288C193.631 12.8456 193.673 12.7344 193.673 12.6186C193.673 12.5029 193.631 12.3917 193.557 12.3085C193.482 12.2253 193.38 12.1765 193.272 12.1725H187.777C187.669 12.1765 187.567 12.2253 187.492 12.3085C187.417 12.3917 187.375 12.5029 187.375 12.6186C187.375 12.7344 187.417 12.8456 187.492 12.9288C187.567 13.012 187.669 13.0608 187.777 13.0648Z" fill="#F1F1F1"/>
<path d="M187.776 15.0777L192.956 14.8674C193.489 14.8458 193.492 13.9534 192.956 13.9751L187.776 14.1854C187.243 14.207 187.241 15.0995 187.776 15.0777Z" fill="#F1F1F1"/>
<path d="M187.777 16.7746H192.801C192.909 16.7706 193.011 16.7219 193.086 16.6386C193.16 16.5554 193.202 16.4442 193.202 16.3285C193.202 16.2128 193.16 16.1016 193.086 16.0183C193.011 15.9351 192.909 15.8863 192.801 15.8823H187.777C187.669 15.8863 187.567 15.9351 187.492 16.0183C187.417 16.1016 187.375 16.2128 187.375 16.3285C187.375 16.4442 187.417 16.5554 187.492 16.6386C187.567 16.7219 187.669 16.7706 187.777 16.7746Z" fill="#F1F1F1"/>
<path d="M204.427 12.6459C203.299 12.0139 202.275 13.0531 202.117 14.2404C202.039 14.8209 202.022 15.6144 202.367 16.1076C202.718 16.6112 203.395 16.8224 203.956 16.8596C205.029 16.9307 206.17 16.2882 206.434 15.1087C206.558 14.585 206.498 14.0304 206.264 13.552C206.03 13.0735 205.639 12.705 205.167 12.5177C204.661 12.3293 204.443 13.1909 204.946 13.3781C205.179 13.4822 205.375 13.6648 205.503 13.8984C205.631 14.1321 205.685 14.4041 205.657 14.6736C205.624 14.9835 205.498 15.2734 205.297 15.4991C205.097 15.7249 204.833 15.8743 204.547 15.9245C203.861 16.0939 203.057 15.9121 202.925 15.0812C202.826 14.4597 203.14 12.9302 204.007 13.4164C204.481 13.6817 204.901 12.9119 204.427 12.6459V12.6459Z" fill="#F1F1F1"/>
<path d="M242.337 13.0648H247.832C247.94 13.0608 248.042 13.012 248.117 12.9288C248.191 12.8456 248.233 12.7344 248.233 12.6186C248.233 12.5029 248.191 12.3917 248.117 12.3085C248.042 12.2253 247.94 12.1765 247.832 12.1725H242.337C242.229 12.1765 242.127 12.2253 242.052 12.3085C241.977 12.3917 241.935 12.5029 241.935 12.6186C241.935 12.7344 241.977 12.8456 242.052 12.9288C242.127 13.012 242.229 13.0608 242.337 13.0648Z" fill="#F1F1F1"/>
<path d="M242.336 15.0777L247.516 14.8674C248.049 14.8458 248.052 13.9534 247.516 13.9751L242.336 14.1854C241.803 14.207 241.801 15.0995 242.336 15.0777Z" fill="#F1F1F1"/>
<path d="M242.337 16.7746H247.361C247.469 16.7706 247.571 16.7219 247.646 16.6386C247.72 16.5554 247.762 16.4442 247.762 16.3285C247.762 16.2128 247.72 16.1016 247.646 16.0183C247.571 15.9351 247.469 15.8863 247.361 15.8823H242.337C242.229 15.8863 242.127 15.9351 242.052 16.0183C241.977 16.1016 241.935 16.2128 241.935 16.3285C241.935 16.4442 241.977 16.5554 242.052 16.6386C242.127 16.7219 242.229 16.7706 242.337 16.7746Z" fill="#F1F1F1"/>
<path d="M258.987 12.6459C257.859 12.0139 256.835 13.0531 256.677 14.2404C256.599 14.8209 256.582 15.6144 256.927 16.1076C257.278 16.6112 257.955 16.8224 258.517 16.8596C259.589 16.9307 260.73 16.2882 260.994 15.1087C261.118 14.585 261.058 14.0304 260.824 13.552C260.59 13.0735 260.199 12.705 259.727 12.5177C259.221 12.3293 259.003 13.1909 259.506 13.3781C259.74 13.4822 259.935 13.6648 260.063 13.8984C260.191 14.1321 260.245 14.4041 260.217 14.6736C260.184 14.9835 260.058 15.2734 259.857 15.4991C259.657 15.7249 259.394 15.8743 259.107 15.9245C258.421 16.0939 257.617 15.9121 257.485 15.0812C257.386 14.4597 257.7 12.9302 258.567 13.4164C259.041 13.6817 259.462 12.9119 258.987 12.6459V12.6459Z" fill="#F1F1F1"/>
<path d="M188.876 21.668C194.92 21.7362 200.959 21.5358 206.991 21.0666L206.59 20.5019C205.603 23.1889 205.63 26.0211 205.761 28.8636C205.794 29.5758 206.002 30.5362 205.867 31.2416C205.698 32.1287 204.957 31.9166 204.219 31.9422C202.595 31.9986 200.97 32.0392 199.345 32.0638C197.811 32.0871 196.276 32.0963 194.741 32.0913C194.019 32.0889 193.297 32.0834 192.574 32.0748C191.726 32.0647 190.762 32.3292 190.543 31.2741C190.403 30.5983 190.544 29.7094 190.545 29.0144L190.546 26.4722L190.549 21.3879C190.546 21.2723 190.5 21.1627 190.423 21.0823C190.345 21.0019 190.242 20.9569 190.134 20.9569C190.026 20.9569 189.923 21.0019 189.845 21.0823C189.768 21.1627 189.722 21.2723 189.718 21.3879L189.715 27.6021L189.713 30.4267C189.712 30.9878 189.604 31.6656 189.799 32.1983C190.248 33.4235 192.187 32.9638 193.116 32.973C195.012 32.9918 196.908 32.9887 198.804 32.9638C200.7 32.9391 202.595 32.8929 204.49 32.8251C205.306 32.796 206.436 32.9954 206.684 31.914C206.857 31.1559 206.655 30.1675 206.618 29.3939C206.576 28.511 206.53 27.628 206.519 26.7439C206.493 24.6795 206.682 22.671 207.392 20.7391C207.408 20.6729 207.41 20.6034 207.398 20.5361C207.386 20.4688 207.359 20.4055 207.321 20.3509C207.282 20.2964 207.232 20.2521 207.175 20.2214C207.118 20.1908 207.055 20.1747 206.991 20.1743C200.962 20.6433 194.923 20.8438 188.876 20.7756C188.768 20.7796 188.666 20.8284 188.591 20.9116C188.516 20.9949 188.474 21.1061 188.474 21.2218C188.474 21.3375 188.516 21.4487 188.591 21.5319C188.666 21.6152 188.768 21.6639 188.876 21.6679L188.876 21.668Z" fill="#F1F1F1"/>
<path d="M190.598 22.1528C193.186 23.1362 195.708 24.3062 198.149 25.6547C200.339 26.87 203.205 28.1976 204.712 30.3698C205.028 30.825 205.75 30.3806 205.43 29.9194C203.891 27.7013 201.242 26.3961 199.016 25.1354C196.373 23.6456 193.634 22.3613 190.819 21.2924C190.314 21.0994 190.097 21.9612 190.598 22.1528Z" fill="#F1F1F1"/>
<path d="M206.85 20.5638C204.104 21.8247 201.778 24.2541 199.325 26.0542C196.669 28.0027 193.934 29.816 191.12 31.4942C190.653 31.7742 191.071 32.5452 191.539 32.2647C194.347 30.5807 197.082 28.7674 199.744 26.8247C202.197 25.0249 204.524 22.5948 207.269 21.3342C207.759 21.1091 207.337 20.3402 206.85 20.5637V20.5638Z" fill="#F1F1F1"/>
<path d="M243.435 21.668C249.48 21.7362 255.519 21.5358 261.551 21.0666L261.15 20.5019C260.163 23.1889 260.19 26.0211 260.321 28.8636C260.354 29.5758 260.562 30.5362 260.427 31.2416C260.258 32.1287 259.517 31.9166 258.779 31.9422C257.155 31.9986 255.53 32.0392 253.905 32.0638C252.371 32.0871 250.836 32.0963 249.301 32.0913C248.579 32.0889 247.856 32.0834 247.134 32.0748C246.286 32.0647 245.322 32.3292 245.103 31.2741C244.963 30.5983 245.104 29.7094 245.104 29.0144L245.106 26.4722L245.109 21.3879C245.105 21.2723 245.06 21.1627 244.982 21.0823C244.905 21.0019 244.801 20.9569 244.694 20.9569C244.586 20.9569 244.482 21.0019 244.405 21.0823C244.327 21.1627 244.282 21.2723 244.278 21.3879L244.274 27.6021L244.273 30.4267C244.272 30.9878 244.164 31.6656 244.359 32.1983C244.807 33.4235 246.746 32.9638 247.676 32.973C249.572 32.9918 251.468 32.9887 253.364 32.9638C255.259 32.9391 257.155 32.8929 259.05 32.8251C259.866 32.796 260.996 32.9954 261.243 31.914C261.417 31.1559 261.215 30.1675 261.178 29.3939C261.135 28.511 261.09 27.628 261.079 26.7439C261.053 24.6795 261.242 22.671 261.951 20.7391C261.968 20.6729 261.97 20.6034 261.958 20.5361C261.946 20.4688 261.919 20.4055 261.88 20.3509C261.842 20.2964 261.792 20.2521 261.735 20.2214C261.678 20.1908 261.615 20.1747 261.551 20.1743C255.522 20.6433 249.483 20.8438 243.435 20.7756C243.328 20.7796 243.226 20.8284 243.151 20.9116C243.076 20.9949 243.034 21.1061 243.034 21.2218C243.034 21.3375 243.076 21.4487 243.151 21.5319C243.226 21.6152 243.328 21.6639 243.435 21.6679L243.435 21.668Z" fill="#F1F1F1"/>
<path d="M245.158 22.1528C247.746 23.1362 250.268 24.3062 252.709 25.6547C254.899 26.87 257.765 28.1976 259.272 30.3698C259.588 30.825 260.31 30.3806 259.99 29.9194C258.451 27.7013 255.802 26.3961 253.576 25.1354C250.933 23.6456 248.194 22.3613 245.379 21.2924C244.875 21.0994 244.657 21.9612 245.158 22.1528Z" fill="#F1F1F1"/>
<path d="M261.41 20.5638C258.664 21.8247 256.338 24.2541 253.884 26.0542C251.229 28.0027 248.494 29.816 245.68 31.4942C245.213 31.7742 245.631 32.5452 246.099 32.2647C248.907 30.5807 251.642 28.7674 254.304 26.8247C256.757 25.0249 259.084 22.5948 261.829 21.3342C262.319 21.1091 261.896 20.3402 261.41 20.5637V20.5638Z" fill="#F1F1F1"/>
<path d="M243.435 39.5143C249.48 39.5826 255.519 39.3821 261.551 38.913L261.15 38.3482C260.163 41.0353 260.19 43.8674 260.321 46.71C260.354 47.4221 260.562 48.3825 260.427 49.0879C260.258 49.975 259.517 49.763 258.779 49.7886C257.155 49.845 255.53 49.8855 253.905 49.9102C252.371 49.9334 250.836 49.9426 249.301 49.9377C248.579 49.9353 247.856 49.9298 247.134 49.9212C246.286 49.911 245.322 50.1755 245.103 49.1205C244.963 48.4447 245.104 47.5558 245.104 46.8608L245.106 44.3186L245.109 39.2343C245.105 39.1186 245.06 39.009 244.982 38.9286C244.905 38.8482 244.801 38.8033 244.694 38.8033C244.586 38.8033 244.482 38.8482 244.405 38.9286C244.327 39.009 244.282 39.1186 244.278 39.2343L244.274 45.4484L244.273 48.2731C244.272 48.8341 244.164 49.512 244.359 50.0446C244.807 51.2699 246.746 50.8102 247.676 50.8194C249.572 50.8381 251.468 50.835 253.364 50.8101C255.259 50.7854 257.155 50.7392 259.05 50.6715C259.866 50.6423 260.996 50.8417 261.243 49.7604C261.417 49.0023 261.215 48.0138 261.178 47.2402C261.135 46.3574 261.09 45.4744 261.079 44.5903C261.053 42.5258 261.242 40.5174 261.951 38.5855C261.968 38.5192 261.97 38.4498 261.958 38.3825C261.946 38.3152 261.919 38.2518 261.88 38.1973C261.842 38.1427 261.792 38.0984 261.735 38.0678C261.678 38.0372 261.615 38.0211 261.551 38.0207C255.522 38.4897 249.483 38.6902 243.435 38.622C243.328 38.626 243.226 38.6748 243.151 38.758C243.076 38.8412 243.034 38.9524 243.034 39.0682C243.034 39.1839 243.076 39.2951 243.151 39.3783C243.226 39.4615 243.328 39.5103 243.435 39.5143H243.435Z" fill="#F1F1F1"/>
<path d="M245.158 39.9992C247.746 40.9826 250.268 42.1526 252.709 43.5011C254.899 44.7164 257.765 46.044 259.272 48.2161C259.588 48.6714 260.31 48.227 259.99 47.7658C258.451 45.5477 255.802 44.2425 253.576 42.9818C250.933 41.492 248.194 40.2076 245.379 39.1388C244.875 38.9458 244.657 39.8076 245.158 39.9992Z" fill="#F1F1F1"/>
<path d="M261.41 38.4101C258.664 39.671 256.338 42.1004 253.884 43.9005C251.229 45.849 248.494 47.6624 245.68 49.3405C245.213 49.6205 245.631 50.3916 246.099 50.111C248.907 48.427 251.642 46.6137 254.304 44.671C256.757 42.8713 259.084 40.4412 261.829 39.1806C262.319 38.9555 261.896 38.1866 261.41 38.4101Z" fill="#F1F1F1"/>
<path d="M190.446 38.8417C196.047 38.9332 201.648 38.9093 207.248 38.7698C207.782 38.7565 207.784 37.8641 207.248 37.8775C201.648 38.0169 196.047 38.0409 190.446 37.9494C190.339 37.9534 190.236 38.0022 190.162 38.0854C190.087 38.1686 190.045 38.2798 190.045 38.3956C190.045 38.5113 190.087 38.6225 190.162 38.7057C190.236 38.789 190.339 38.8377 190.446 38.8417Z" fill="#F1F1F1"/>
<path d="M190.917 42.8873C196.675 42.986 202.433 42.9594 208.19 42.8076C208.724 42.7936 208.726 41.9012 208.19 41.9153C202.433 42.0671 196.676 42.0937 190.917 41.995C190.382 41.9858 190.382 42.8782 190.917 42.8873Z" fill="#F1F1F1"/>
<path d="M190.287 47.2554L206.618 46.441C207.15 46.4144 207.153 45.522 206.618 45.5487L190.287 46.3631C189.755 46.3897 189.752 47.2821 190.287 47.2554Z" fill="#F1F1F1"/>
<path d="M215.725 34.649H231.269C231.377 34.645 231.479 34.5963 231.554 34.513C231.629 34.4298 231.671 34.3186 231.671 34.2029C231.671 34.0871 231.629 33.9759 231.554 33.8927C231.479 33.8095 231.377 33.7607 231.269 33.7567H215.725C215.617 33.7607 215.515 33.8095 215.44 33.8927C215.366 33.9759 215.324 34.0871 215.324 34.2029C215.324 34.3186 215.366 34.4298 215.44 34.513C215.515 34.5963 215.617 34.645 215.725 34.649Z" fill="#F1F1F1"/>
<path d="M230.588 29.5475L233.017 31.9283C233.295 32.2005 234.059 32.7626 234.231 33.1186C234.588 33.8546 234.205 33.6867 233.593 33.9418C232.091 34.5838 230.706 35.5071 229.504 36.6685C229.102 37.0489 229.692 37.678 230.092 37.2995C231.188 36.2413 232.448 35.3962 233.814 34.8022C234.304 34.5941 235.233 34.4722 235.466 33.8454C235.751 33.0783 234.844 32.5123 234.414 32.0909L231.176 28.9166C230.782 28.5301 230.192 29.1594 230.588 29.5475V29.5475Z" fill="#F1F1F1"/>
<path d="M192.865 64.3807H204.304C205.084 59.5341 205.084 54.5794 204.304 49.7328H192.865C194.153 54.5173 194.153 59.5961 192.865 64.3807Z" fill="#6C63FF"/>
<path d="M145.229 53.3754H156.668C157.448 48.5288 157.448 43.5742 156.668 38.7275H145.229C146.517 43.5121 146.517 48.5909 145.229 53.3754Z" fill="#6C63FF"/>
<path d="M217.513 21.252H228.953C229.733 16.4054 229.733 11.4508 228.953 6.60413H217.513C218.802 11.3887 218.802 16.4675 217.513 21.252Z" fill="#6C63FF"/>
</g>
<defs>
<clipPath id="clip0">
<rect width="280" height="186" fill="white"/>
</clipPath>
</defs>
</svg>
