<svg width="438" height="272" viewBox="0 0 438 272" fill="none" xmlns="http://www.w3.org/2000/svg">
<path d="M152.294 148.225C152.664 149.055 153.056 149.894 153.458 150.719L152.596 151.108C152.189 150.274 151.794 149.426 151.419 148.587L152.294 148.225Z" fill="#E6E6E6"/>
<path d="M305.981 81.8204C306.524 82.9353 307.047 84.0713 307.533 85.1972L306.654 85.5488C305.926 83.863 305.12 82.1641 304.271 80.5208L305.123 80.1129C305.415 80.677 305.701 81.2462 305.981 81.8204ZM302.363 75.1965L301.541 75.6596C300.577 74.0732 299.545 72.5023 298.474 70.9894L299.261 70.4739C300.344 72.0037 301.387 73.5924 302.363 75.1965ZM309.58 90.4254C310.199 92.1859 310.761 93.9862 311.251 95.7766L310.331 96.0096C309.846 94.2399 309.29 92.4599 308.678 90.7192L309.58 90.4254ZM295.83 65.9667L295.082 66.5332C293.903 65.0917 292.657 63.6715 291.378 62.3121L292.083 61.697C293.377 63.0723 294.638 64.5087 295.83 65.9667ZM312.536 101.226C312.897 103.048 313.197 104.906 313.427 106.748L312.482 106.858C312.254 105.036 311.958 103.199 311.6 101.398L312.536 101.226ZM288.04 57.6869L287.38 58.3475C286.007 57.0767 284.571 55.8362 283.113 54.6611L283.724 53.9589C285.199 55.1474 286.651 56.4015 288.04 57.6869ZM313.921 112.325C314.018 114.182 314.049 116.064 314.013 117.919L313.061 117.902C313.096 116.069 313.066 114.207 312.97 112.371L313.921 112.325ZM279.151 50.5241L278.591 51.2652C277.049 50.1877 275.449 49.1476 273.836 48.1753L274.342 47.3984C275.973 48.3822 277.591 49.4339 279.151 50.5241ZM313.705 123.504C313.536 125.356 313.299 127.223 313 129.055L312.06 128.913C312.355 127.102 312.59 125.255 312.757 123.424L313.705 123.504ZM269.321 44.5966L268.872 45.4043C267.191 44.5387 265.459 43.7182 263.722 42.9654L264.112 42.1298C265.87 42.8913 267.622 43.721 269.321 44.5966ZM311.902 134.546C311.473 136.354 310.974 138.172 310.418 139.95L309.507 139.686C310.056 137.928 310.55 136.13 310.974 134.342L311.902 134.546ZM258.74 40.0102L258.41 40.8692C256.622 40.2317 254.789 39.6449 252.96 39.1257L253.23 38.2468C255.079 38.7721 256.933 39.3654 258.74 40.0102ZM308.555 145.244C307.874 146.981 307.123 148.716 306.322 150.403L305.457 150.022C306.249 148.354 306.991 146.638 307.664 144.921L308.555 145.244ZM247.606 36.8494L247.399 37.7434C245.54 37.3457 243.64 37.0046 241.753 36.7293L241.896 35.8238C243.804 36.1017 245.726 36.447 247.606 36.8494ZM303.73 155.402C302.811 157.033 301.822 158.653 300.79 160.218L299.986 159.727C301.006 158.18 301.985 156.578 302.894 154.965L303.73 155.402ZM236.124 35.1769L236.046 36.0896C234.144 35.9397 232.214 35.8517 230.306 35.8281L230.319 34.9122C232.248 34.9359 234.2 35.0248 236.124 35.1769ZM297.516 164.828C296.375 166.322 295.166 167.797 293.922 169.211L293.195 168.619C294.425 167.22 295.621 165.763 296.749 164.286L297.516 164.828ZM224.507 35.0325L224.561 35.9471C222.655 36.0505 220.729 36.2189 218.835 36.4482L218.716 35.5393C220.632 35.3071 222.58 35.1365 224.507 35.0325ZM290.024 173.343C288.68 174.673 287.27 175.975 285.835 177.212L285.2 176.53C286.619 175.307 288.012 174.02 289.342 172.704L290.024 173.343ZM212.983 36.429L213.167 37.3284C211.297 37.6827 209.416 38.1044 207.576 38.5814L207.329 37.6969C209.189 37.2145 211.091 36.7881 212.983 36.429ZM281.377 180.793C279.856 181.932 278.274 183.035 276.675 184.07L276.143 183.31C277.725 182.286 279.289 181.196 280.793 180.07L281.377 180.793ZM201.779 39.3353L202.089 40.2014C200.29 40.7982 198.486 41.4636 196.729 42.1785L196.358 41.3347C198.135 40.6115 199.959 39.9389 201.779 39.3353H201.779ZM271.75 187.029C270.083 187.955 268.36 188.84 266.627 189.658L266.208 188.835C267.921 188.026 269.626 187.152 271.273 186.235L271.75 187.029ZM191.519 44.5014C189.815 45.3284 188.12 46.2212 186.483 47.1549L185.998 46.3671C187.654 45.4224 189.367 44.5196 191.09 43.683L191.519 44.5014ZM181.648 50.1329C180.077 51.1762 178.525 52.2832 177.037 53.4241L176.444 52.7075C177.949 51.5536 179.518 50.4337 181.108 49.3787L181.648 50.1329ZM172.673 57.0133C171.269 58.2514 169.892 59.5519 168.581 60.8791L167.891 60.2478C169.217 58.9054 170.61 57.5899 172.03 56.3382L172.673 57.0133ZM164.774 65.0086C163.559 66.4224 162.38 67.8938 161.271 69.3813L160.497 68.8471C161.619 67.3425 162.812 65.8547 164.041 64.4247L164.774 65.0086ZM158.086 73.9762C157.082 75.5381 156.123 77.1515 155.235 78.7704L154.393 78.343C155.291 76.7054 156.261 75.0738 157.276 73.494L158.086 73.9762ZM152.73 83.7421C151.957 85.4186 151.234 87.1426 150.582 88.8666L149.687 88.553C150.347 86.8094 151.078 85.0659 151.859 83.3703L152.73 83.7421ZM148.801 94.1208C148.272 95.886 147.799 97.6893 147.396 99.4807L146.466 99.2871C146.873 97.4754 147.351 95.6515 147.887 93.8668L148.801 94.1208ZM146.374 104.92C146.1 106.739 145.887 108.588 145.742 110.416L144.793 110.347C144.939 108.498 145.154 106.628 145.432 104.788L146.374 104.92ZM145.504 115.941C145.49 117.779 145.542 119.638 145.66 121.47L144.71 121.526C144.591 119.674 144.538 117.793 144.551 115.935L145.504 115.941ZM146.213 126.976C146.462 128.795 146.78 130.628 147.159 132.426L146.226 132.608C145.843 130.79 145.521 128.935 145.27 127.096L146.213 126.976ZM148.493 137.8C149 139.567 149.576 141.341 150.208 143.073L149.309 143.376C148.671 141.624 148.088 139.83 147.576 138.044L148.493 137.8Z" fill="#E6E6E6"/>
<path d="M260.841 191.152L261.2 192C260.31 192.349 259.41 192.686 258.523 193L258.194 192.141C259.07 191.83 259.961 191.497 260.841 191.152Z" fill="#E6E6E6"/>
<path d="M97.4085 30.2346C92.6033 22.4199 83.0965 22.0557 83.0965 22.0557C83.0965 22.0557 73.8327 20.9155 67.89 32.8174C62.3509 43.9109 54.7063 54.6219 66.6593 57.2188L68.8183 50.7511L70.1554 57.7004C71.8573 57.8182 73.5646 57.8462 75.2696 57.7845C88.0702 57.3867 100.261 57.9009 99.8684 53.4798C99.3466 47.6027 102.032 37.7539 97.4085 30.2346Z" fill="#4F4E68"/>
<path d="M58.9852 201.489V213.841L52.3612 213.044V202.684L58.9852 201.489Z" fill="#FFB8B8"/>
<path d="M104.939 209.458L107.423 219.021L113.219 217.029L109.079 207.864L104.939 209.458Z" fill="#FFB8B8"/>
<path d="M60.2272 69.199L61.0552 91.1144L66.4371 92.7083L68.0931 71.5897L60.2272 69.199Z" fill="#FFB8B8"/>
<path d="M61.8831 89.5208L61.0551 91.1146L53.6031 97.8885C53.6031 97.8885 48.2212 102.272 50.2911 105.061L55.6731 102.67V101.076L68.093 92.7085L61.8831 89.5208Z" fill="#FFB8B8"/>
<path d="M92.105 95.896V105.061L60.2272 100.279L63.9532 93.5052L92.105 95.896Z" fill="#FFB8B8"/>
<path d="M106.595 67.2068C106.595 67.2068 109.493 74.7776 109.907 75.5745C110.321 76.3714 115.289 94.7007 115.289 94.7007L127.709 113.827C127.709 113.827 136.817 124.187 131.021 124.585C125.225 124.984 121.085 115.819 121.085 115.819L108.665 100.279L97.0729 70.7929L106.595 67.2068Z" fill="#FFB8B8"/>
<path d="M82.7899 50.2722C89.4206 50.2722 94.7958 45.0987 94.7958 38.7168C94.7958 32.3349 89.4206 27.1614 82.7899 27.1614C76.1592 27.1614 70.7839 32.3349 70.7839 38.7168C70.7839 45.0987 76.1592 50.2722 82.7899 50.2722Z" fill="#FFB8B8"/>
<path d="M79.2709 46.4868C79.2709 46.4868 79.2709 54.8545 74.7169 56.0499C70.1629 57.2453 78.4429 66.0115 78.4429 66.0115L95.0028 58.0422C95.0028 58.0422 87.9648 55.6515 90.0348 46.4868H79.2709Z" fill="#FFB8B8"/>
<path d="M76.5799 55.0537L67.7999 57.8429C65.4171 58.7683 63.3476 60.3114 61.8211 62.3007C60.2947 64.2901 59.3712 66.6478 59.1532 69.112C58.9986 70.6314 59.2249 72.1643 59.813 73.5822C62.297 79.1607 65.195 80.3561 65.195 80.3561C65.195 80.3561 65.6089 82.7469 65.195 83.1453C64.781 83.5438 63.953 83.9422 64.367 85.1376C64.781 86.333 65.195 85.9346 64.781 87.1299C64.367 88.3253 62.711 91.1146 62.711 91.1146C62.711 91.1146 64.367 91.9115 63.125 92.7084C61.883 93.5053 61.469 95.0992 61.469 95.0992C61.469 95.0992 89.6208 96.2946 92.5188 99.0838L97.4868 79.5592C97.4868 79.5592 109.079 75.1761 108.665 70.793C108.251 66.4099 105.767 62.4253 102.869 61.2299C99.9708 60.0345 92.9383 56.8433 92.9383 56.8433C92.9383 56.8433 92.0113 59.8068 83.5348 59.0932C82.1327 58.9733 80.7775 58.5471 79.5723 57.8471C78.3671 57.1471 77.3437 56.1918 76.5799 55.0537Z" fill="#2E47C9"/>
<path d="M92.9328 102.272C92.9328 102.272 65.609 100.678 61.469 95.0992L49.8771 105.858L51.1191 112.632L50.7051 201.09C50.7051 201.09 50.2911 205.473 51.5331 205.473C52.7751 205.473 59.399 206.27 59.813 205.473C60.227 204.676 58.571 203.083 61.469 202.286C64.367 201.489 64.367 204.278 64.367 201.489C64.367 198.699 63.953 186.746 63.125 184.753C62.297 182.761 72.647 136.938 72.647 136.938C72.647 136.938 99.9708 207.864 102.041 209.458C104.111 211.052 104.525 213.443 105.767 213.044C107.009 212.646 112.805 211.052 113.219 210.653C113.633 210.255 112.805 207.067 113.219 205.872C113.633 204.676 114.875 206.27 113.219 203.88C111.563 201.489 111.149 199.895 111.149 198.699C111.149 197.504 95.8308 120.601 95.8308 120.601C95.8308 120.601 99.1428 113.429 94.1748 109.444L92.9328 102.272Z" fill="#4F4E68"/>
<path d="M59.8131 210.653C59.8131 210.653 55.6731 206.669 54.0171 206.669H49.8771C49.8771 206.669 46.1511 214.239 44.9091 214.638C43.6671 215.036 35.3872 224.6 42.8392 224.6C50.2911 224.6 53.1891 222.209 53.1891 222.209L59.8131 219.021V210.653Z" fill="#4F4E68"/>
<path d="M106.736 216.379L105.767 224.6C105.767 224.6 114.047 227.787 114.047 228.186C114.047 228.584 127.295 234.561 128.123 229.381C128.951 224.201 121.499 219.818 121.499 219.818C121.499 219.818 113.554 210.765 112.145 211.108C110.735 211.45 110.735 213.841 110.735 213.841L106.736 216.379Z" fill="#4F4E68"/>
<path d="M192.085 172.469H76.166V122.76L134.126 147.835L192.085 122.76V172.469Z" fill="#2E47C9"/>
<path d="M76.166 122.76H192.085L134.24 151.481L76.166 122.76Z" fill="#AFBCFF"/>
<path d="M134.24 156.12C136.903 156.12 139.061 154.043 139.061 151.481C139.061 148.918 136.903 146.841 134.24 146.841C131.578 146.841 129.42 148.918 129.42 151.481C129.42 154.043 131.578 156.12 134.24 156.12Z" fill="#E6E6E6"/>
<path d="M84.2602 28.7112C88.0565 28.7112 91.1341 25.7491 91.1341 22.0952C91.1341 18.4413 88.0565 15.4792 84.2602 15.4792C80.4638 15.4792 77.3862 18.4413 77.3862 22.0952C77.3862 25.7491 80.4638 28.7112 84.2602 28.7112Z" fill="#4F4E68"/>
<path d="M76.6626 20.3543C76.6628 18.7203 77.2912 17.1441 78.4267 15.9295C79.5623 14.7148 81.1247 13.9475 82.8129 13.7755C81.8543 13.6772 80.8848 13.7742 79.9676 14.06C79.0504 14.3458 78.2059 14.8142 77.489 15.4346C76.7721 16.055 76.1988 16.8137 75.8064 17.6612C75.414 18.5088 75.2112 19.4263 75.2112 20.3543C75.2112 21.2822 75.414 22.1997 75.8064 23.0473C76.1988 23.8948 76.7721 24.6535 77.489 25.2739C78.2059 25.8943 79.0504 26.3627 79.9676 26.6485C80.8848 26.9344 81.8543 27.0313 82.8129 26.933C81.1247 26.761 79.5623 25.9937 78.4267 24.7791C77.2912 23.5644 76.6628 21.9883 76.6626 20.3543Z" fill="#4F4E68"/>
<path d="M95.2841 29.4814L85.8917 24.7461L72.9216 26.683L70.238 38.0906L76.9183 37.8432L78.7842 33.6525V37.7742L81.8668 37.6603L83.6557 30.988L84.7739 38.0906L95.7312 37.8754L95.2841 29.4814Z" fill="#4F4E68"/>
<path d="M438 159.052H238.039V252.691H438V159.052Z" fill="#2E47C9"/>
<path d="M438 159.052H238.039V171.006H438V159.052Z" fill="#AFBCFF"/>
<path d="M267.019 223.205C277.079 223.205 285.235 215.355 285.235 205.673C285.235 195.99 277.079 188.14 267.019 188.14C256.959 188.14 248.803 195.99 248.803 205.673C248.803 215.355 256.959 223.205 267.019 223.205Z" fill="#E6E6E6"/>
<path d="M414.402 195.91H315.043V198.699H414.402V195.91Z" fill="#E6E6E6"/>
<path d="M414.402 204.278H315.043V207.067H414.402V204.278Z" fill="#E6E6E6"/>
<path d="M375.072 212.646H315.043V215.435H375.072V212.646Z" fill="#E6E6E6"/>
<path d="M368.047 75.9452C368.047 75.9452 365.343 84.4973 366.889 87.1001C368.434 89.7029 364.184 95.2804 357.23 92.6776C350.276 90.0748 349.89 87.1001 349.89 87.1001C349.89 87.1001 352.594 83.01 353.367 74.4579L368.047 75.9452Z" fill="#A0616A"/>
<path d="M403.396 159.793C403.396 159.793 417.304 166.486 411.123 175.41C407.53 180.597 400.674 190.684 395.562 198.221C391.284 204.53 388.003 211.415 385.826 218.651L384.853 221.889L380.989 226.351L372.876 217.427C372.876 217.427 384.853 196.232 384.853 192.142C384.853 188.052 394.511 175.038 394.511 175.038L384.853 169.089C384.853 169.089 395.67 157.19 403.396 159.793Z" fill="#A0616A"/>
<path d="M358.196 182.846C358.196 182.846 357.81 193.258 357.423 197.348C357.105 200.722 360.204 210.17 359.13 220.681C358.474 227.482 358.552 234.329 359.364 241.114L360.9 254.61L349.311 255.725L345.447 225.235C345.447 225.235 343.129 203.669 344.288 196.604L343.902 181.731C343.902 181.731 352.401 178.756 358.196 182.846Z" fill="#A0616A"/>
<path d="M378.865 139.528C378.865 139.528 405.907 156.261 406.294 161.466C406.294 161.466 390.841 159.979 390.454 172.993C390.454 172.993 381.183 169.646 378.865 168.903C376.547 168.159 364.184 160.351 364.184 160.351C364.184 160.351 359.162 164.069 359.162 170.018C359.162 175.968 359.548 186.379 359.162 187.122C358.776 187.866 349.89 177.083 342.55 186.379L337.528 160.722C337.528 160.722 335.982 145.106 339.073 143.99L360.707 136.182L378.865 139.528Z" fill="#4F4E68"/>
<path d="M362.446 80.5931C368.847 80.5931 374.035 75.5989 374.035 69.4382C374.035 63.2775 368.847 58.2833 362.446 58.2833C356.045 58.2833 350.856 63.2775 350.856 69.4382C350.856 75.5989 356.045 80.5931 362.446 80.5931Z" fill="#A0616A"/>
<path d="M365.343 88.9592C365.343 88.9592 352.27 92.2823 350.501 85.9729C350.501 85.9729 334.437 88.9592 331.733 98.9986C329.028 109.038 338.3 133.207 338.3 133.951C338.3 134.694 330.574 139.156 334.051 141.387C337.528 143.618 340.618 141.015 339.073 143.99C337.528 146.965 334.823 147.708 337.141 148.452C339.459 149.196 353.367 137.669 364.184 140.644C375.001 143.618 380.41 141.387 380.41 141.387L385.26 101.039C385.45 99.4936 385.234 97.9268 384.632 96.4819C384.031 95.0371 383.063 93.7602 381.817 92.7678C379.396 90.8498 376.184 88.7776 373.07 88.2156C366.888 87.1001 366.632 86.4894 366.632 86.4894L365.343 88.9592Z" fill="#D0CDE1"/>
<path d="M377.706 154.03C377.706 154.03 374.229 172.993 369.593 170.39C364.957 167.787 370.752 154.03 370.752 154.03L377.706 154.03Z" fill="#A0616A"/>
<path d="M361.567 156.484C361.567 156.484 367.591 174.846 362.23 174.601C356.869 174.355 355.401 159.577 355.401 159.577L361.567 156.484Z" fill="#A0616A"/>
<path d="M382.921 221.145C382.921 221.145 385.625 218.17 387.171 222.26C388.716 226.351 392.965 231.556 392.965 231.556C392.965 231.556 402.237 241.596 395.67 241.967C389.102 242.339 379.83 233.043 379.83 233.043L369.013 223.376C369.013 223.376 372.598 214.972 374.283 214.898C375.967 214.824 375.581 224.863 382.921 221.145Z" fill="#4F4E68"/>
<path d="M357.81 252.007C357.81 252.007 360.532 252.772 360.33 249.601C360.33 249.601 370.172 254.61 367.468 258.328C367.441 258.365 367.414 258.402 367.387 258.439C363.578 263.658 358.364 267.78 352.305 270.361C349.335 271.627 346.691 272.47 346.22 271.714C345.061 269.855 345.061 266.136 345.834 264.649C346.606 263.162 350.47 260.559 349.311 258.328C348.152 256.097 349.697 250.148 351.629 250.148C353.56 250.148 357.81 252.007 357.81 252.007Z" fill="#4F4E68"/>
<path d="M372.56 59.9861C372.56 59.9861 368.832 52.2112 361.686 54.0054C354.54 55.7996 350.501 58.4909 350.19 61.1822C349.879 63.8735 350.345 67.9105 350.345 67.9105C350.345 67.9105 351.122 62.3784 356.093 63.5745C361.064 64.7706 368.832 63.8735 368.832 63.8735L370.074 74.6388C370.074 74.6388 371.473 72.6951 373.026 73.8912C374.579 75.0874 377.531 62.3783 372.56 59.9861Z" fill="#4F4E68"/>
<path d="M338.3 98.6269C338.3 98.6269 347.572 122.796 346.799 125.771C346.027 128.745 346.799 129.117 347.958 129.861C349.117 130.604 352.208 138.413 352.208 138.413C352.208 138.413 354.14 142.875 355.685 143.99C357.23 145.106 357.23 148.08 357.23 148.08C357.23 148.08 361.094 151.799 360.321 152.542C359.548 153.286 359.548 154.401 361.094 155.517C362.639 156.632 364.184 158.12 363.412 158.492C362.639 158.863 357.23 162.954 355.685 162.582C354.14 162.21 356.458 160.723 354.526 159.979C352.594 159.235 351.435 158.12 352.208 157.748C352.981 157.376 355.299 157.376 352.981 156.632C350.663 155.889 342.55 151.055 339.846 145.106C337.141 139.156 324.184 103.162 332.015 98.1057C332.015 98.1057 335.21 94.1649 338.3 98.6269Z" fill="#D0CDE1"/>
<path d="M381.183 94.5367L381.34 94.5997C382.799 95.1854 384.088 96.1046 385.095 97.2777C386.102 98.4509 386.797 99.8426 387.119 101.332C387.963 105.219 388.793 110.84 388.136 116.103C386.978 125.399 386.205 129.489 384.66 132.463C383.114 135.438 382.728 134.323 383.114 136.554C383.501 138.785 385.432 136.925 383.501 139.9C381.569 142.875 380.41 142.131 381.183 143.618C381.955 145.106 383.114 145.106 381.569 146.965C380.024 148.824 380.024 149.568 379.637 150.311C379.251 151.055 378.092 156.632 378.092 156.632C378.092 156.632 371.911 154.773 368.434 155.517C368.434 155.517 371.524 150.311 370.752 149.196C369.979 148.08 368.82 147.708 369.979 146.593C371.138 145.478 373.07 145.849 371.138 144.734C369.206 143.618 372.683 132.092 372.683 132.092L381.183 94.5367Z" fill="#D0CDE1"/>
<path d="M276.955 214.548C276.955 221.771 272.493 224.294 266.99 224.294C266.862 224.294 266.735 224.292 266.608 224.289C266.353 224.284 266.1 224.273 265.851 224.256C260.884 223.918 257.025 221.265 257.025 214.548C257.025 207.597 266.253 198.826 266.949 198.175L266.95 198.174C266.976 198.149 266.99 198.136 266.99 198.136C266.99 198.136 276.955 207.325 276.955 214.548Z" fill="#2E47C9"/>
<path d="M266.627 223.188L270.272 218.287L266.618 223.726L266.608 224.289C266.353 224.284 266.1 224.273 265.851 224.256L266.244 217.029L266.241 216.973L266.248 216.963L266.285 216.28L262.622 210.827L266.296 215.768L266.305 215.913L266.602 210.453L263.466 204.818L266.64 209.494L266.949 198.175L266.95 198.136V198.174L266.899 207.1L270.02 203.561L266.886 207.868L266.803 212.757L269.718 208.066L266.791 213.477L266.745 216.195L270.977 209.664L266.729 217.143L266.627 223.188Z" fill="#F2F2F2"/>
<path d="M19.8979 195.558C19.8216 195.438 18.0224 192.546 17.3986 186.542C16.8265 181.034 17.1944 171.748 22.1975 158.797C31.6757 134.26 20.0132 114.462 19.894 114.265L20.4694 113.944C20.4996 113.994 23.509 119.042 25.2868 127.079C27.6358 137.735 26.7804 148.815 22.8209 159.02C13.3589 183.514 20.3934 195.11 20.4655 195.224L19.8979 195.558Z" fill="#2E47C9"/>
<path d="M16.1917 112.825C18.5789 112.825 20.5142 110.962 20.5142 108.664C20.5142 106.367 18.5789 104.504 16.1917 104.504C13.8044 104.504 11.8691 106.367 11.8691 108.664C11.8691 110.962 13.8044 112.825 16.1917 112.825Z" fill="#AFBCFF"/>
<path d="M29.8242 128.186C32.2115 128.186 34.1468 126.323 34.1468 124.025C34.1468 121.728 32.2115 119.865 29.8242 119.865C27.437 119.865 25.5017 121.728 25.5017 124.025C25.5017 126.323 27.437 128.186 29.8242 128.186Z" fill="#2E47C9"/>
<path d="M20.5142 138.426C22.9014 138.426 24.8367 136.564 24.8367 134.266C24.8367 131.968 22.9014 130.106 20.5142 130.106C18.1269 130.106 16.1917 131.968 16.1917 134.266C16.1917 136.564 18.1269 138.426 20.5142 138.426Z" fill="#AFBCFF"/>
<path d="M31.8194 147.067C34.2066 147.067 36.1419 145.205 36.1419 142.907C36.1419 140.609 34.2066 138.747 31.8194 138.747C29.4321 138.747 27.4968 140.609 27.4968 142.907C27.4968 145.205 29.4321 147.067 31.8194 147.067Z" fill="#AFBCFF"/>
<path d="M17.1892 160.508C19.5765 160.508 21.5117 158.646 21.5117 156.348C21.5117 154.05 19.5765 152.188 17.1892 152.188C14.802 152.188 12.8667 154.05 12.8667 156.348C12.8667 158.646 14.802 160.508 17.1892 160.508Z" fill="#2E47C9"/>
<path d="M22.5092 195.711C22.5092 195.711 18.1867 185.47 31.1543 177.79L22.5092 195.711Z" fill="#2E47C9"/>
<path d="M17.1932 195.525C17.1932 195.525 15.226 184.635 0 184.728L17.1932 195.525Z" fill="#2E47C9"/>
<path d="M300.139 0H186.703V60.8048H300.139V0Z" fill="#2E47C9"/>
<path d="M279.025 23.2697H207.544V25.2863H279.025V23.2697Z" fill="white"/>
<path d="M279.025 31.3362H207.544V33.3528H279.025V31.3362Z" fill="white"/>
<path d="M279.025 39.4027H207.544V41.4193H279.025V39.4027Z" fill="white"/>
<path d="M300.139 0.0664062H186.703V6.84027H300.139V0.0664062Z" fill="#AFBCFF"/>
<path d="M191.337 6.1195C192.753 6.1195 193.901 5.01481 193.901 3.6521C193.901 2.28939 192.753 1.18469 191.337 1.18469C189.921 1.18469 188.773 2.28939 188.773 3.6521C188.773 5.01481 189.921 6.1195 191.337 6.1195Z" fill="#E6E6E6"/>
<path d="M198.295 6.1195C199.711 6.1195 200.859 5.01481 200.859 3.6521C200.859 2.28939 199.711 1.18469 198.295 1.18469C196.879 1.18469 195.732 2.28939 195.732 3.6521C195.732 5.01481 196.879 6.1195 198.295 6.1195Z" fill="#E6E6E6"/>
<path d="M205.254 6.1195C206.669 6.1195 207.817 5.01481 207.817 3.6521C207.817 2.28939 206.669 1.18469 205.254 1.18469C203.838 1.18469 202.69 2.28939 202.69 3.6521C202.69 5.01481 203.838 6.1195 205.254 6.1195Z" fill="#E6E6E6"/>
<path d="M244.249 167.819C245.85 167.819 247.147 166.57 247.147 165.029C247.147 163.489 245.85 162.24 244.249 162.24C242.649 162.24 241.351 163.489 241.351 165.029C241.351 166.57 242.649 167.819 244.249 167.819Z" fill="white"/>
<path d="M252.529 167.819C254.129 167.819 255.427 166.57 255.427 165.029C255.427 163.489 254.129 162.24 252.529 162.24C250.928 162.24 249.631 163.489 249.631 165.029C249.631 166.57 250.928 167.819 252.529 167.819Z" fill="white"/>
<path d="M260.809 167.819C262.409 167.819 263.707 166.57 263.707 165.029C263.707 163.489 262.409 162.24 260.809 162.24C259.208 162.24 257.911 163.489 257.911 165.029C257.911 166.57 259.208 167.819 260.809 167.819Z" fill="white"/>
</svg>
