<svg width="247" height="192" viewBox="0 0 247 192" fill="none" xmlns="http://www.w3.org/2000/svg">
<g clip-path="url(#clip0)">
<path opacity="0.2" d="M204.087 169.154H186.373V159.025H204.087V169.154ZM187.121 168.394H203.338V159.785H187.121V168.394Z" fill="#6C63FF"/>
<path opacity="0.2" d="M221.801 168.648H204.087V158.519H221.801V168.648ZM204.835 167.888H221.053V159.278H204.835V167.888Z" fill="#6C63FF"/>
<path opacity="0.2" d="M239.515 168.648H221.801V158.519H239.515V168.648ZM222.55 167.888H238.767V159.278H222.55V167.888Z" fill="#6C63FF"/>
<path opacity="0.2" d="M239.515 158.519H221.801V148.39H239.515V158.519ZM222.55 157.759H238.767V149.149H222.55V157.759Z" fill="#6C63FF"/>
<path opacity="0.2" d="M221.801 158.519H204.087V148.39H221.801V158.519ZM204.835 157.759H221.053V149.149H204.835V157.759Z" fill="#6C63FF"/>
<path opacity="0.2" d="M22.205 168.648H4.49084V158.519H22.205V168.648ZM5.23933 167.888H21.4565V159.278H5.23933V167.888Z" fill="#6C63FF"/>
<path opacity="0.2" d="M39.9192 168.648H22.2051V158.519H39.9192V168.648ZM22.9536 167.888H39.1707V159.278H22.9536V167.888Z" fill="#6C63FF"/>
<path opacity="0.2" d="M57.6333 168.648H39.9192V158.519H57.6333V168.648ZM40.6677 167.888H56.8848V159.278H40.6677V167.888Z" fill="#6C63FF"/>
<path opacity="0.2" d="M75.3474 169.154H57.6333V159.025H75.3474V169.154ZM58.3818 168.394H74.5989V159.785H58.3818V168.394Z" fill="#6C63FF"/>
<path opacity="0.2" d="M57.6333 158.519H39.9192V148.39H57.6333V158.519ZM40.6677 157.759H56.8848V149.149H40.6677V157.759Z" fill="#6C63FF"/>
<path opacity="0.2" d="M39.9192 158.519H22.2051V148.39H39.9192V158.519ZM22.9536 157.759H39.1707V149.149H22.9536V157.759Z" fill="#6C63FF"/>
<path d="M222.121 137.339C222.121 137.339 218.842 126.038 222.734 117.719C224.39 114.241 224.889 110.312 224.156 106.521C223.795 104.724 223.272 102.965 222.595 101.265" stroke="#535461" stroke-width="2" stroke-miterlimit="10"/>
<path d="M225.019 96C225.019 97.3852 222.549 101.401 222.549 101.401C222.549 101.401 220.079 97.3852 220.079 96C220.079 95.3348 220.34 94.6968 220.803 94.2265C221.267 93.7561 221.895 93.4918 222.551 93.4918C223.206 93.4918 223.835 93.7561 224.298 94.2265C224.761 94.6968 225.022 95.3348 225.022 96H225.019Z" fill="#6C63FF"/>
<path d="M229.104 103.68C228.355 104.843 224.136 106.851 224.136 106.851C224.136 106.851 224.214 102.115 224.955 100.953C225.131 100.677 225.359 100.438 225.626 100.251C225.894 100.064 226.194 99.9322 226.512 99.8632C226.829 99.7942 227.156 99.7893 227.476 99.8488C227.795 99.9082 228.099 100.031 228.372 100.21C228.644 100.389 228.879 100.62 229.063 100.891C229.248 101.163 229.377 101.468 229.445 101.79C229.513 102.112 229.518 102.444 229.46 102.768C229.401 103.092 229.28 103.401 229.104 103.678V103.68Z" fill="#6C63FF"/>
<path d="M228.924 116.792C227.707 117.415 223.061 116.985 223.061 116.985C223.061 116.985 225.481 112.933 226.701 112.313C227.286 112.013 227.965 111.962 228.588 112.17C229.21 112.378 229.726 112.829 230.021 113.423C230.316 114.017 230.366 114.706 230.161 115.338C229.956 115.97 229.512 116.493 228.927 116.792H228.924Z" fill="#6C63FF"/>
<path d="M226.589 126.681C225.491 127.504 220.851 127.876 220.851 127.876C220.851 127.876 222.562 123.472 223.66 122.647C223.921 122.451 224.217 122.309 224.532 122.229C224.847 122.15 225.174 122.134 225.495 122.183C225.815 122.231 226.124 122.344 226.402 122.513C226.68 122.683 226.922 122.906 227.115 123.171C227.308 123.436 227.448 123.736 227.527 124.056C227.605 124.375 227.621 124.707 227.573 125.033C227.525 125.359 227.414 125.672 227.247 125.954C227.08 126.236 226.86 126.482 226.599 126.678L226.589 126.681Z" fill="#6C63FF"/>
<path d="M218.949 107.122C219.927 108.086 224.488 109.087 224.488 109.087C224.488 109.087 223.37 104.488 222.392 103.516C222.159 103.286 221.884 103.106 221.583 102.984C221.281 102.862 220.959 102.802 220.635 102.807C220.31 102.812 219.99 102.882 219.692 103.012C219.394 103.143 219.124 103.331 218.898 103.568C218.672 103.804 218.494 104.083 218.374 104.389C218.254 104.695 218.195 105.022 218.2 105.352C218.205 105.681 218.273 106.006 218.402 106.308C218.53 106.611 218.716 106.885 218.949 107.114V107.122Z" fill="#6C63FF"/>
<path d="M216.362 118.719C217.579 119.342 222.225 118.912 222.225 118.912C222.225 118.912 219.805 114.86 218.585 114.24C218 113.94 217.321 113.889 216.699 114.097C216.076 114.305 215.561 114.756 215.265 115.35C214.97 115.944 214.92 116.633 215.125 117.265C215.33 117.897 215.774 118.42 216.359 118.719H216.362Z" fill="#6C63FF"/>
<path d="M215.372 130.345C216.469 131.168 221.11 131.54 221.11 131.54C221.11 131.54 219.408 127.147 218.308 126.314C218.047 126.118 217.751 125.976 217.436 125.896C217.122 125.817 216.794 125.801 216.474 125.849C216.153 125.898 215.844 126.01 215.566 126.18C215.288 126.349 215.046 126.573 214.853 126.838C214.66 127.102 214.52 127.403 214.442 127.723C214.363 128.042 214.347 128.374 214.395 128.7C214.443 129.026 214.554 129.338 214.721 129.621C214.888 129.903 215.108 130.149 215.369 130.345H215.372Z" fill="#6C63FF"/>
<path opacity="0.25" d="M225.019 96C225.019 97.3852 222.549 101.401 222.549 101.401C222.549 101.401 220.079 97.3852 220.079 96C220.079 95.3348 220.34 94.6968 220.803 94.2265C221.267 93.7561 221.895 93.4918 222.551 93.4918C223.206 93.4918 223.835 93.7561 224.298 94.2265C224.761 94.6968 225.022 95.3348 225.022 96H225.019Z" fill="black"/>
<path opacity="0.25" d="M229.104 103.68C228.355 104.843 224.136 106.851 224.136 106.851C224.136 106.851 224.214 102.115 224.955 100.953C225.131 100.677 225.359 100.438 225.626 100.251C225.894 100.064 226.194 99.9322 226.512 99.8632C226.829 99.7942 227.156 99.7893 227.476 99.8488C227.795 99.9082 228.099 100.031 228.372 100.21C228.644 100.389 228.879 100.62 229.063 100.891C229.248 101.163 229.377 101.468 229.445 101.79C229.513 102.112 229.518 102.444 229.46 102.768C229.401 103.092 229.28 103.401 229.104 103.678V103.68Z" fill="black"/>
<path opacity="0.25" d="M228.924 116.792C227.707 117.415 223.061 116.985 223.061 116.985C223.061 116.985 225.481 112.933 226.701 112.313C227.286 112.013 227.965 111.962 228.588 112.17C229.21 112.378 229.726 112.829 230.021 113.423C230.316 114.017 230.366 114.706 230.161 115.338C229.956 115.97 229.512 116.493 228.927 116.792H228.924Z" fill="black"/>
<path opacity="0.25" d="M226.589 126.681C225.491 127.504 220.851 127.876 220.851 127.876C220.851 127.876 222.562 123.472 223.66 122.647C223.921 122.451 224.217 122.309 224.532 122.229C224.847 122.15 225.174 122.134 225.495 122.183C225.815 122.231 226.124 122.344 226.402 122.513C226.68 122.683 226.922 122.906 227.115 123.171C227.308 123.436 227.448 123.736 227.527 124.056C227.605 124.375 227.621 124.707 227.573 125.033C227.525 125.359 227.414 125.672 227.247 125.954C227.08 126.236 226.86 126.482 226.599 126.678L226.589 126.681Z" fill="black"/>
<path opacity="0.25" d="M218.949 107.122C219.927 108.086 224.488 109.087 224.488 109.087C224.488 109.087 223.37 104.488 222.392 103.516C222.159 103.286 221.884 103.106 221.583 102.984C221.281 102.862 220.959 102.802 220.635 102.807C220.31 102.812 219.99 102.882 219.692 103.012C219.394 103.143 219.124 103.331 218.898 103.568C218.672 103.804 218.494 104.083 218.374 104.389C218.254 104.695 218.195 105.022 218.2 105.352C218.205 105.681 218.273 106.006 218.402 106.308C218.53 106.611 218.716 106.885 218.949 107.114V107.122Z" fill="black"/>
<path opacity="0.25" d="M216.362 118.719C217.579 119.342 222.225 118.912 222.225 118.912C222.225 118.912 219.805 114.86 218.585 114.24C218 113.94 217.321 113.889 216.699 114.097C216.076 114.305 215.561 114.756 215.265 115.35C214.97 115.944 214.92 116.633 215.125 117.265C215.33 117.897 215.774 118.42 216.359 118.719H216.362Z" fill="black"/>
<path opacity="0.25" d="M215.372 130.345C216.469 131.168 221.11 131.54 221.11 131.54C221.11 131.54 219.408 127.147 218.308 126.314C218.047 126.118 217.751 125.976 217.436 125.896C217.122 125.817 216.794 125.801 216.474 125.849C216.153 125.898 215.844 126.01 215.566 126.18C215.288 126.349 215.046 126.573 214.853 126.838C214.66 127.102 214.52 127.403 214.442 127.723C214.363 128.042 214.347 128.374 214.395 128.7C214.443 129.026 214.554 129.338 214.721 129.621C214.888 129.903 215.108 130.149 215.369 130.345H215.372Z" fill="black"/>
<path d="M42.1147 137.425C42.1147 137.425 38.7865 125.956 42.7385 117.524C44.4189 113.994 44.9257 110.006 44.183 106.159C43.8166 104.331 43.2854 102.541 42.5962 100.811" stroke="#535461" stroke-width="2" stroke-miterlimit="10"/>
<path d="M45.0563 95.4935C45.0563 96.8989 42.5489 100.976 42.5489 100.976C42.5489 100.976 40.0389 96.8863 40.0389 95.4935C40.0389 94.8186 40.3031 94.1713 40.7733 93.694C41.2436 93.2168 41.8814 92.9486 42.5464 92.9486C43.2114 92.9486 43.8491 93.2168 44.3194 93.694C44.7896 94.1713 45.0538 94.8186 45.0538 95.4935H45.0563Z" fill="#6C63FF"/>
<path d="M49.2004 103.268C48.452 104.448 44.1606 106.486 44.1606 106.486C44.1606 106.486 44.238 101.675 44.9915 100.502C45.167 100.214 45.3974 99.965 45.6691 99.7686C45.9408 99.5722 46.2483 99.4328 46.5738 99.3586C46.8992 99.2843 47.236 99.2767 47.5644 99.3363C47.8928 99.3958 48.2061 99.5212 48.4862 99.7052C48.7662 99.8891 49.0072 100.128 49.1952 100.408C49.3831 100.687 49.5142 101.002 49.5807 101.334C49.6472 101.666 49.6478 102.008 49.5825 102.34C49.5173 102.672 49.3874 102.987 49.2004 103.268Z" fill="#6C63FF"/>
<path d="M49.0183 116.572C47.7708 117.205 43.0679 116.767 43.0679 116.767C43.0679 116.767 45.5254 112.66 46.7604 112.027C47.3543 111.723 48.0428 111.671 48.6744 111.882C49.3061 112.093 49.8292 112.551 50.1286 113.153C50.428 113.756 50.4792 114.455 50.271 115.096C50.0628 115.737 49.6122 116.268 49.0183 116.572Z" fill="#6C63FF"/>
<path d="M46.6556 126.607C45.5428 127.443 40.8224 127.82 40.8224 127.82C40.8224 127.82 42.5689 123.351 43.6741 122.502C43.9389 122.303 44.2397 122.158 44.5595 122.077C44.8793 121.995 45.2118 121.979 45.538 122.027C45.8643 122.076 46.1778 122.19 46.4607 122.362C46.7436 122.534 46.9904 122.761 47.187 123.029C47.3836 123.298 47.5261 123.603 47.6064 123.928C47.6867 124.252 47.7033 124.59 47.6551 124.921C47.6069 125.252 47.4949 125.57 47.3256 125.857C47.1562 126.145 46.9328 126.395 46.6681 126.595L46.6556 126.607Z" fill="#6C63FF"/>
<path d="M38.8938 106.757C39.8918 107.737 44.515 108.75 44.515 108.75C44.515 108.75 43.3823 104.085 42.3893 103.106C42.1541 102.867 41.8747 102.679 41.5673 102.552C41.2598 102.424 40.9305 102.36 40.5984 102.363C40.2663 102.365 39.938 102.435 39.6326 102.567C39.3272 102.7 39.0508 102.893 38.8195 103.135C38.5881 103.376 38.4064 103.663 38.2849 103.976C38.1634 104.29 38.1045 104.625 38.1117 104.962C38.1188 105.299 38.1919 105.631 38.3266 105.939C38.4613 106.248 38.6549 106.525 38.8963 106.757H38.8938Z" fill="#6C63FF"/>
<path d="M36.2691 118.537C37.5166 119.17 42.2196 118.732 42.2196 118.732C42.2196 118.732 39.7621 114.625 38.5271 113.992C37.9332 113.688 37.2447 113.636 36.613 113.847C35.9814 114.058 35.4583 114.516 35.1589 115.118C34.8595 115.721 34.8082 116.42 35.0164 117.061C35.2247 117.702 35.6753 118.233 36.2691 118.537Z" fill="#6C63FF"/>
<path d="M35.2636 130.327C36.3764 131.163 41.0968 131.54 41.0968 131.54C41.0968 131.54 39.3504 127.071 38.2451 126.222C37.7105 125.819 37.04 125.649 36.3812 125.747C35.7224 125.846 35.1292 126.206 34.7322 126.749C34.3352 127.292 34.1668 127.972 34.2642 128.641C34.3615 129.309 34.7165 129.912 35.2512 130.314L35.2636 130.327Z" fill="#6C63FF"/>
<path opacity="0.5" d="M45.0563 95.4935C45.0563 96.8989 42.5489 100.976 42.5489 100.976C42.5489 100.976 40.0389 96.8863 40.0389 95.4935C40.0389 94.8186 40.3031 94.1713 40.7733 93.694C41.2436 93.2168 41.8814 92.9486 42.5464 92.9486C43.2114 92.9486 43.8491 93.2168 44.3194 93.694C44.7896 94.1713 45.0538 94.8186 45.0538 95.4935H45.0563Z" fill="white"/>
<path opacity="0.5" d="M49.2004 103.268C48.452 104.448 44.1606 106.486 44.1606 106.486C44.1606 106.486 44.238 101.675 44.9915 100.502C45.167 100.214 45.3974 99.965 45.6691 99.7686C45.9408 99.5722 46.2483 99.4328 46.5738 99.3586C46.8992 99.2843 47.236 99.2767 47.5644 99.3363C47.8928 99.3958 48.2061 99.5212 48.4862 99.7052C48.7662 99.8891 49.0072 100.128 49.1952 100.408C49.3831 100.687 49.5142 101.002 49.5807 101.334C49.6472 101.666 49.6478 102.008 49.5825 102.34C49.5173 102.672 49.3874 102.987 49.2004 103.268Z" fill="white"/>
<path opacity="0.5" d="M49.0183 116.572C47.7708 117.205 43.0679 116.767 43.0679 116.767C43.0679 116.767 45.5254 112.66 46.7604 112.027C47.3543 111.723 48.0428 111.671 48.6744 111.882C49.3061 112.093 49.8292 112.551 50.1286 113.153C50.428 113.756 50.4792 114.455 50.271 115.096C50.0628 115.737 49.6122 116.268 49.0183 116.572Z" fill="white"/>
<path opacity="0.5" d="M46.6556 126.607C45.5428 127.443 40.8224 127.82 40.8224 127.82C40.8224 127.82 42.5689 123.351 43.6741 122.502C43.9389 122.303 44.2397 122.158 44.5595 122.077C44.8793 121.995 45.2118 121.979 45.538 122.027C45.8643 122.076 46.1778 122.19 46.4607 122.362C46.7436 122.534 46.9904 122.761 47.187 123.029C47.3836 123.298 47.5261 123.603 47.6064 123.928C47.6867 124.252 47.7033 124.59 47.6551 124.921C47.6069 125.252 47.4949 125.57 47.3256 125.857C47.1562 126.145 46.9328 126.395 46.6681 126.595L46.6556 126.607Z" fill="white"/>
<path opacity="0.5" d="M38.8938 106.757C39.8918 107.737 44.515 108.75 44.515 108.75C44.515 108.75 43.3823 104.085 42.3893 103.106C42.1541 102.867 41.8747 102.679 41.5673 102.552C41.2598 102.424 40.9305 102.36 40.5984 102.363C40.2663 102.365 39.938 102.435 39.6326 102.567C39.3272 102.7 39.0508 102.893 38.8195 103.135C38.5881 103.376 38.4064 103.663 38.2849 103.976C38.1634 104.29 38.1045 104.625 38.1117 104.962C38.1188 105.299 38.1919 105.631 38.3266 105.939C38.4613 106.248 38.6549 106.525 38.8963 106.757H38.8938Z" fill="white"/>
<path opacity="0.5" d="M36.2691 118.537C37.5166 119.17 42.2196 118.732 42.2196 118.732C42.2196 118.732 39.7621 114.625 38.5271 113.992C37.9332 113.688 37.2447 113.636 36.613 113.847C35.9814 114.058 35.4583 114.516 35.1589 115.118C34.8595 115.721 34.8082 116.42 35.0164 117.061C35.2247 117.702 35.6753 118.233 36.2691 118.537Z" fill="white"/>
<path opacity="0.5" d="M35.2636 130.327C36.3764 131.163 41.0968 131.54 41.0968 131.54C41.0968 131.54 39.3504 127.071 38.2451 126.222C37.7105 125.819 37.04 125.649 36.3812 125.747C35.7224 125.846 35.1292 126.206 34.7322 126.749C34.3352 127.292 34.1668 127.972 34.2642 128.641C34.3615 129.309 34.7165 129.912 35.2512 130.314L35.2636 130.327Z" fill="white"/>
<path d="M23.1257 137.141C23.1257 137.141 20.5908 128.413 23.6022 121.968C24.8825 119.278 25.2686 116.239 24.7025 113.308C24.4231 111.919 24.0189 110.558 23.495 109.244" stroke="#535461" stroke-width="2" stroke-miterlimit="10"/>
<path d="M25.3686 105.177C25.3686 106.248 23.4575 109.355 23.4575 109.355C23.4575 109.355 21.5464 106.248 21.5464 105.177C21.5464 104.662 21.7477 104.169 22.1061 103.805C22.4645 103.442 22.9507 103.237 23.4575 103.237C23.9644 103.237 24.4505 103.442 24.8089 103.805C25.1673 104.169 25.3686 104.662 25.3686 105.177Z" fill="#6C63FF"/>
<path d="M28.5273 111.11C27.9534 112.009 24.6851 113.564 24.6851 113.564C24.6851 113.564 24.7449 109.902 25.3188 109.006C25.4552 108.792 25.6319 108.607 25.8386 108.463C26.0453 108.318 26.278 108.216 26.5234 108.163C26.7689 108.11 27.0223 108.106 27.2692 108.152C27.516 108.199 27.7515 108.294 27.9622 108.432C28.1729 108.571 28.3546 108.75 28.497 108.96C28.6394 109.169 28.7397 109.406 28.7922 109.655C28.8447 109.904 28.8483 110.161 28.8028 110.412C28.7574 110.662 28.6637 110.901 28.5273 111.115V111.11Z" fill="#6C63FF"/>
<path d="M28.3901 121.249C27.447 121.73 23.8542 121.398 23.8542 121.398C23.8542 121.398 25.7255 118.269 26.6686 117.785C27.1212 117.553 27.6459 117.513 28.1274 117.674C28.6088 117.835 29.0076 118.184 29.2359 118.643C29.4641 119.103 29.5033 119.635 29.3447 120.124C29.1861 120.613 28.8427 121.017 28.3901 121.249Z" fill="#6C63FF"/>
<path d="M26.5837 128.899C25.7354 129.537 22.1377 129.823 22.1377 129.823C22.1377 129.823 23.4625 126.417 24.3108 125.772C24.7184 125.466 25.2291 125.337 25.7304 125.413C26.2317 125.489 26.6827 125.764 26.9841 126.178C27.2855 126.592 27.4127 127.11 27.3376 127.619C27.2625 128.128 26.9913 128.585 26.5837 128.891V128.899Z" fill="#6C63FF"/>
<path d="M20.6732 113.771C21.4217 114.518 24.957 115.291 24.957 115.291C24.957 115.291 24.0938 111.746 23.3353 110.986C23.1551 110.808 22.9422 110.669 22.7089 110.575C22.4755 110.481 22.2262 110.435 21.9751 110.438C21.7241 110.442 21.4763 110.496 21.2459 110.597C21.0154 110.699 20.8068 110.845 20.632 111.028C20.4572 111.211 20.3196 111.427 20.2271 111.663C20.1346 111.9 20.0889 112.153 20.0928 112.408C20.0966 112.663 20.1498 112.914 20.2494 113.148C20.349 113.382 20.493 113.594 20.6732 113.771Z" fill="#6C63FF"/>
<path d="M18.6723 122.743C19.6154 123.224 23.2081 122.892 23.2081 122.892C23.2081 122.892 21.3369 119.763 20.3938 119.279C19.9412 119.047 19.4164 119.008 18.935 119.169C18.4535 119.33 18.0548 119.678 17.8265 120.137C17.5982 120.597 17.5591 121.129 17.7177 121.618C17.8763 122.107 18.2197 122.511 18.6723 122.743Z" fill="#6C63FF"/>
<path d="M17.9062 131.732C18.7545 132.371 22.3522 132.657 22.3522 132.657C22.3522 132.657 21.0274 129.251 20.1791 128.605C19.9773 128.454 19.748 128.344 19.5044 128.283C19.2609 128.221 19.0077 128.209 18.7595 128.246C18.5113 128.284 18.2728 128.371 18.0577 128.502C17.8425 128.634 17.655 128.807 17.5058 129.012C17.3565 129.216 17.2485 129.449 17.1878 129.696C17.1272 129.944 17.1151 130.2 17.1523 130.452C17.1895 130.704 17.2752 130.946 17.4046 131.165C17.5339 131.383 17.7044 131.573 17.9062 131.725V131.732Z" fill="#6C63FF"/>
<path opacity="0.25" d="M25.3686 105.177C25.3686 106.248 23.4575 109.355 23.4575 109.355C23.4575 109.355 21.5464 106.248 21.5464 105.177C21.5464 104.662 21.7477 104.169 22.1061 103.805C22.4645 103.442 22.9507 103.237 23.4575 103.237C23.9644 103.237 24.4505 103.442 24.8089 103.805C25.1673 104.169 25.3686 104.662 25.3686 105.177Z" fill="black"/>
<path opacity="0.25" d="M28.5273 111.11C27.9534 112.009 24.6851 113.564 24.6851 113.564C24.6851 113.564 24.7449 109.902 25.3188 109.006C25.4552 108.792 25.6319 108.607 25.8386 108.463C26.0453 108.318 26.278 108.216 26.5234 108.163C26.7689 108.11 27.0223 108.106 27.2692 108.152C27.516 108.199 27.7515 108.294 27.9622 108.432C28.1729 108.571 28.3546 108.75 28.497 108.96C28.6394 109.169 28.7397 109.406 28.7922 109.655C28.8447 109.904 28.8483 110.161 28.8028 110.412C28.7574 110.662 28.6637 110.901 28.5273 111.115V111.11Z" fill="black"/>
<path opacity="0.25" d="M28.3901 121.249C27.447 121.73 23.8542 121.398 23.8542 121.398C23.8542 121.398 25.7255 118.269 26.6686 117.785C27.1212 117.553 27.6459 117.513 28.1274 117.674C28.6088 117.835 29.0076 118.184 29.2359 118.643C29.4641 119.103 29.5033 119.635 29.3447 120.124C29.1861 120.613 28.8427 121.017 28.3901 121.249Z" fill="black"/>
<path opacity="0.25" d="M26.5837 128.899C25.7354 129.537 22.1377 129.823 22.1377 129.823C22.1377 129.823 23.4625 126.417 24.3108 125.772C24.7184 125.466 25.2291 125.337 25.7304 125.413C26.2317 125.489 26.6827 125.764 26.9841 126.178C27.2855 126.592 27.4127 127.11 27.3376 127.619C27.2625 128.128 26.9913 128.585 26.5837 128.891V128.899Z" fill="black"/>
<path opacity="0.25" d="M20.6732 113.771C21.4217 114.518 24.957 115.291 24.957 115.291C24.957 115.291 24.0938 111.746 23.3353 110.986C23.1551 110.808 22.9422 110.669 22.7089 110.575C22.4755 110.481 22.2262 110.435 21.9751 110.438C21.7241 110.442 21.4763 110.496 21.2459 110.597C21.0154 110.699 20.8068 110.845 20.632 111.028C20.4572 111.211 20.3196 111.427 20.2271 111.663C20.1346 111.9 20.0889 112.153 20.0928 112.408C20.0966 112.663 20.1498 112.914 20.2494 113.148C20.349 113.382 20.493 113.594 20.6732 113.771Z" fill="black"/>
<path opacity="0.25" d="M18.6723 122.743C19.6154 123.224 23.2081 122.892 23.2081 122.892C23.2081 122.892 21.3369 119.763 20.3938 119.279C19.9412 119.047 19.4164 119.008 18.935 119.169C18.4535 119.33 18.0548 119.678 17.8265 120.137C17.5982 120.597 17.5591 121.129 17.7177 121.618C17.8763 122.107 18.2197 122.511 18.6723 122.743Z" fill="black"/>
<path opacity="0.25" d="M17.9062 131.732C18.7545 132.371 22.3522 132.657 22.3522 132.657C22.3522 132.657 21.0274 129.251 20.1791 128.605C19.9773 128.454 19.748 128.344 19.5044 128.283C19.2609 128.221 19.0077 128.209 18.7595 128.246C18.5113 128.284 18.2728 128.371 18.0577 128.502C17.8425 128.634 17.655 128.807 17.5058 129.012C17.3565 129.216 17.2485 129.449 17.1878 129.696C17.1272 129.944 17.1151 130.2 17.1523 130.452C17.1895 130.704 17.2752 130.946 17.4046 131.165C17.5339 131.383 17.7044 131.573 17.9062 131.725V131.732Z" fill="black"/>
<g opacity="0.7">
<path opacity="0.6" d="M247 20.258H0V148.136H247V20.258Z" fill="#6C63FF"/>
<path opacity="0.25" d="M0 20.258V148.39H247V20.258H0ZM10.9778 31.3999H118.011V78.7529H10.9778V31.3999ZM10.9778 89.8948H118.011V137.248H10.9778V89.8948ZM236.022 137.248H128.989V89.8948H236.022V137.248ZM236.022 78.7529H128.989V31.3999H236.022V78.7529Z" fill="black"/>
</g>
<g opacity="0.7">
<path opacity="0.7" d="M90.5942 153.677C90.5942 153.677 68.9779 145.655 66.0189 156.946L74.3096 178.336L75.1978 192.01H93.2588V180.415C93.2588 180.415 90.5942 168.827 97.4054 161.699L90.5942 153.677Z" fill="url(#paint0_linear)"/>
<g opacity="0.1">
<path opacity="0.1" d="M94.2142 90.0214C93.2961 89.7124 92.1908 89.4364 91.4424 90.0518C91.0082 90.4088 90.8211 90.9836 90.4843 91.4344C89.3641 92.9259 87.1061 92.6473 85.3222 93.1816C82.7001 93.9666 81.0808 96.6027 80.1527 99.1856C76.046 110.581 80.6243 123.614 77.049 135.187C75.9961 138.592 74.2746 142.373 75.9762 145.505C76.5425 146.551 77.4731 147.422 77.7476 148.577C78.1318 150.144 77.3908 152.201 78.6857 153.155C79.0899 153.452 79.6013 153.545 80.0853 153.662C82.9994 154.442 85.2075 156.744 87.428 158.79C89.6485 160.836 92.3181 162.816 95.3295 162.682C96.3027 162.6 97.2636 162.406 98.1937 162.104L113.138 157.88C114.635 157.458 116.262 156.946 117.13 155.65C117.662 154.857 117.829 153.877 117.964 152.935C118.479 149.336 118.724 145.701 118.695 142.064C118.695 140.864 118.64 139.636 118.196 138.519C117.697 137.23 116.699 136.199 115.973 135.022C114.571 132.743 114.194 130.006 113.847 127.354C113.296 123.133 112.744 118.828 113.508 114.64C113.835 112.842 114.398 111.095 114.773 109.309C115.379 106.401 115.475 103.407 115.057 100.464C114.708 98.0207 113.959 95.5417 112.313 93.7033C111.235 92.4783 109.77 91.6725 108.171 91.4242C106.15 91.171 105.145 92.351 103.343 92.7916C100.679 93.4678 96.7766 90.8798 94.2142 90.0214Z" fill="url(#paint1_linear)"/>
</g>
<path opacity="0.7" d="M94.2142 89.4162C93.2961 89.1073 92.1908 88.8312 91.4424 89.4466C91.0082 89.8036 90.8211 90.3784 90.4843 90.8292C89.3641 92.3207 87.1061 92.0421 85.3222 92.5764C82.7001 93.3614 81.0808 95.9975 80.1527 98.5804C76.046 109.976 80.6243 123.009 77.049 134.581C75.9961 137.987 74.2746 141.768 75.9762 144.9C76.5425 145.946 77.4731 146.817 77.7476 147.972C78.1318 149.539 77.3908 151.596 78.6857 152.55C79.0899 152.846 79.6013 152.94 80.0853 153.057C82.9994 153.837 85.2075 156.138 87.428 158.184C89.6485 160.23 92.3131 162.234 95.3295 162.092C96.3027 162.01 97.2636 161.816 98.1937 161.514L113.138 157.291C114.635 156.868 116.262 156.356 117.13 155.06C117.662 154.267 117.829 153.287 117.964 152.345C118.479 148.746 118.724 145.111 118.695 141.474C118.695 140.274 118.64 139.046 118.196 137.929C117.697 136.64 116.699 135.609 115.973 134.432C114.571 132.153 114.194 129.416 113.847 126.764C113.296 122.543 112.744 118.238 113.508 114.05C113.835 112.252 114.398 110.505 114.773 108.72C115.379 105.811 115.475 102.817 115.057 99.8744C114.708 97.4307 113.959 94.9517 112.313 93.1133C111.235 91.8883 109.77 91.0825 108.171 90.8342C106.15 90.581 105.145 91.761 103.343 92.2017C100.679 92.86 96.7766 90.2873 94.2142 89.4162Z" fill="url(#paint2_linear)"/>
<path opacity="0.7" d="M90.0028 66.9273C90.0028 66.9273 90.2997 78.216 86.7469 77.9197C83.1941 77.6235 96.804 96.6356 96.804 96.6356L108.351 90.3961C108.351 90.3961 101.544 79.4062 106.285 72.5716C111.025 65.7371 90.0028 66.9273 90.0028 66.9273Z" fill="url(#paint3_linear)"/>
<g opacity="0.1">
<path opacity="0.1" d="M70.1631 162.887C70.1631 162.887 67.7954 179.227 61.8724 174.771C55.9494 170.314 56.8376 162.887 56.8376 162.887C56.8376 162.887 68.3867 131.396 67.7954 126.64C67.2041 121.885 87.5055 84.9341 87.5055 84.9341L95.0253 145.655C95.0253 145.655 72.5308 153.973 70.1631 162.887Z" fill="url(#paint4_linear)"/>
</g>
<path opacity="0.7" d="M69.5717 162.887C69.5717 162.887 67.204 179.227 61.2809 174.771C55.3579 170.314 56.2461 162.887 56.2461 162.887C56.2461 162.887 67.7953 131.396 67.2015 126.64C66.6077 121.885 86.9116 84.9341 86.9116 84.9341L94.4313 145.655C94.4313 145.655 71.9394 153.973 69.5717 162.887Z" fill="url(#paint5_linear)"/>
<path opacity="0.7" d="M90.5941 74.0581C90.5941 74.0581 79.045 82.0727 74.599 81.7815L71.1485 82.7336C67.7366 83.6623 64.6486 85.541 62.2334 88.1574C59.8182 90.7738 58.1721 94.0236 57.4811 97.5396L57.4263 97.8233C55.6548 107.332 55.061 133.477 55.061 133.477C55.061 133.477 55.3579 140.314 58.3169 142.087L77.2786 155.158C77.2786 155.158 76.6873 140.899 83.7929 139.413C90.8985 137.926 82.0165 138.818 82.0165 138.818L68.9878 131.094C68.9878 131.094 69.2847 119.507 72.8376 115.648C76.3904 111.789 88.8277 91.5914 88.8277 91.5914L85.2749 79.115L90.5941 74.0581Z" fill="url(#paint6_linear)"/>
<g opacity="0.1">
<path opacity="0.1" d="M103.326 81.7815C103.326 81.7815 110.599 83.7136 115.691 84.6581C116.484 84.802 117.233 85.1338 117.876 85.6266C118.52 86.1194 119.039 86.7593 119.393 87.4942C120.93 90.7127 123.273 96.5343 122.869 101.389L127.31 118.917L140.034 134.364L128.49 139.714L115.466 125.156L126.125 152.786L106.285 153.677C106.285 153.677 100.362 109.109 101.844 101.687L103.326 81.7815Z" fill="url(#paint7_linear)"/>
</g>
<path opacity="0.7" d="M103.917 81.7815C103.917 81.7815 111.19 83.7136 116.282 84.6581C117.076 84.802 117.824 85.1338 118.468 85.6266C119.111 86.1194 119.631 86.7593 119.985 87.4942C121.521 90.7127 123.864 96.5343 123.46 101.389L127.901 118.917L140.625 134.364L129.079 139.712L116.05 125.154L126.718 152.786L106.879 153.677C106.879 153.677 100.956 109.109 102.438 101.687L103.917 81.7815Z" fill="url(#paint8_linear)"/>
<path opacity="0.7" d="M89.621 73.1111L93.7028 93.2196L87.0412 96.6356L83.3911 78.5225L89.621 73.1111Z" fill="url(#paint9_linear)"/>
<path opacity="0.7" d="M100.808 94.7061L103.917 81.7815L107.917 89.358L105.843 95.5974L100.808 94.7061Z" fill="url(#paint10_linear)"/>
<path opacity="0.1" d="M112.061 98.5677C112.061 98.5677 112.061 118.77 114.725 120.254L112.061 98.5677Z" fill="url(#paint11_linear)"/>
<path opacity="0.1" d="M73.8629 103.617C73.8629 103.617 67.7178 123.513 69.4568 125.597L73.8629 103.617Z" fill="url(#paint12_linear)"/>
<path opacity="0.1" d="M72.6804 130.945C72.6804 130.945 84.5264 138.716 86.1531 138.841L72.6804 130.945Z" fill="url(#paint13_linear)"/>
<g opacity="0.1">
<path opacity="0.1" d="M90.2971 68.1149C90.2971 68.1149 90.342 69.8546 90.1824 71.9487C91.2385 74.4356 92.9906 76.5531 95.2215 78.0385C97.4524 79.524 100.064 80.3121 102.732 80.3052C103.463 80.3046 104.193 80.2453 104.915 80.1279C104.838 77.9046 105.259 75.6737 106.582 73.7694C111.32 66.9273 90.2971 68.1149 90.2971 68.1149Z" fill="url(#paint14_linear)"/>
</g>
<path opacity="0.7" d="M102.438 79.1099C109.96 79.1099 116.057 72.9912 116.057 65.4434C116.057 57.8956 109.96 51.7769 102.438 51.7769C94.9155 51.7769 88.8176 57.8956 88.8176 65.4434C88.8176 72.9912 94.9155 79.1099 102.438 79.1099Z" fill="url(#paint15_linear)"/>
<g opacity="0.1">
<path opacity="0.1" d="M111.08 59.6977C112.729 59.9205 114.823 59.3685 115.149 57.7276C115.551 55.6562 112.789 54.3091 112.363 52.2402C112.203 51.4654 112.393 50.655 112.3 49.8675C112.116 48.2823 110.838 47.0618 109.538 46.14C105.411 43.2398 100.411 41.9027 95.4119 42.3619C94.7932 42.4202 94.142 42.5215 93.6654 42.919C93.1215 43.3672 92.917 44.0965 92.5402 44.6916C91.2628 46.763 88.3936 47.0061 86.3353 48.2975C83.9277 49.8169 82.7351 52.772 82.6278 55.6182C82.5205 58.4645 83.3289 61.2575 84.1248 63.9924C84.8059 66.317 85.5194 68.7049 87.0139 70.6091C88.5084 72.5134 90.9884 73.8428 93.3361 73.2705C92.2608 72.4931 93.0417 70.6876 94.2068 70.0546C95.372 69.4215 96.8191 69.3126 97.8145 68.439C98.81 67.5654 99.1094 66.1346 99.4338 64.8331C99.8429 63.1922 100.432 61.526 101.629 60.3282C103.977 57.9833 108.206 59.3102 111.08 59.6977Z" fill="url(#paint16_linear)"/>
</g>
<path opacity="0.7" d="M110.776 59.4014C112.425 59.6243 114.518 59.0723 114.845 57.4314C115.247 55.36 112.485 54.0128 112.058 51.944C111.898 51.1691 112.088 50.3588 111.996 49.5713C111.811 47.9861 110.534 46.7655 109.234 45.8438C105.11 42.945 100.114 41.6071 95.1174 42.0632C94.4986 42.1214 93.8474 42.2227 93.3709 42.6203C92.827 43.0685 92.6224 43.7977 92.2457 44.3928C90.9683 46.4642 88.0991 46.7073 86.0407 47.9987C83.6331 49.5181 82.4405 52.4732 82.3332 55.3195C82.2259 58.1657 83.0343 60.9588 83.8302 63.6936C84.5113 66.0182 85.2249 68.4061 86.7193 70.3104C88.2138 72.2146 90.6938 73.544 93.0416 72.9718C91.9662 72.1943 92.7472 70.3889 93.9123 69.7558C95.0774 69.1227 96.5245 69.0139 97.52 68.1402C98.5155 67.2666 98.8149 65.8359 99.1392 64.5343C99.5484 62.8934 100.137 61.2272 101.335 60.0294C103.68 57.6871 107.909 59.0115 110.776 59.4014Z" fill="url(#paint17_linear)"/>
<g opacity="0.1">
<path opacity="0.1" d="M100.083 67.2869C99.8829 68.6999 99.4388 71.146 98.603 72.6907C97.4977 74.7009 96.5525 76.7975 95.7762 78.9605C95.7762 78.9605 101.23 83.197 104.01 86.0913C104.865 87.0004 105.96 87.6409 107.164 87.9368C108.368 88.2326 109.63 88.1713 110.801 87.7601C112.245 87.2334 113.51 86.2154 113.847 84.3061C114.376 81.2953 113.747 79.0238 113.154 77.6792C112.867 77.0439 112.718 76.3541 112.714 75.6556C112.711 74.957 112.854 74.2658 113.134 73.6276C113.338 73.1718 113.578 72.8148 113.845 72.7261C113.845 72.7261 108.515 71.5385 108.219 73.0224C107.922 74.5063 103.778 75.9927 102.889 73.3187L102.64 67.4236C102.624 67.0895 102.482 66.7744 102.243 66.5441C102.004 66.3138 101.687 66.1862 101.357 66.1879C101.05 66.1848 100.752 66.2943 100.518 66.4961C100.284 66.698 100.129 66.9787 100.083 67.2869Z" fill="url(#paint18_linear)"/>
</g>
<path opacity="0.7" d="M100.083 67.5857C99.8829 68.9987 99.4388 71.4448 98.603 72.9895C97.4977 74.9997 96.5525 77.0963 95.7762 79.2593C95.7762 79.2593 101.23 83.4958 104.01 86.3901C104.865 87.2992 105.96 87.9397 107.164 88.2356C108.368 88.5314 109.63 88.4701 110.801 88.0589C112.245 87.5322 113.51 86.5142 113.847 84.6049C114.376 81.594 113.747 79.3226 113.154 77.978C112.867 77.3427 112.718 76.6529 112.714 75.9544C112.711 75.2558 112.854 74.5645 113.134 73.9264C113.338 73.4706 113.578 73.1135 113.845 73.0249C113.845 73.0249 108.515 71.8373 108.219 73.3212C107.922 74.8051 103.778 76.2915 102.889 73.6175L102.64 67.7224C102.624 67.3883 102.482 67.0732 102.243 66.8429C102.004 66.6126 101.687 66.485 101.357 66.4867C101.05 66.4836 100.752 66.5931 100.518 66.7949C100.284 66.9968 100.129 67.2775 100.083 67.5857Z" fill="url(#paint19_linear)"/>
</g>
<path d="M90.8835 153.482C90.8835 153.482 70.133 145.693 67.2913 156.655L75.2501 177.419L76.0959 190.706H93.4358V179.45C93.4358 179.45 90.8785 168.199 97.4278 161.274L90.8835 153.482Z" fill="#535461"/>
<path opacity="0.1" d="M94.359 91.6673C93.4783 91.3685 92.4154 91.1001 91.6994 91.6977C91.2827 92.0446 91.1031 92.6017 90.7787 93.0398C89.7034 94.4882 87.5353 94.2173 85.8238 94.7364C83.3064 95.4961 81.7545 98.0587 80.8613 100.561C76.9193 111.624 81.3129 124.285 77.8823 135.521C76.8844 138.828 75.2202 142.5 76.8519 145.541C77.3958 146.554 78.2815 147.402 78.5535 148.524C78.9227 150.043 78.2117 152.044 79.4542 152.97C79.8409 153.259 80.3324 153.348 80.7964 153.477C83.5933 154.237 85.714 156.47 87.8447 158.458C89.9754 160.446 92.5402 162.368 95.4293 162.238C96.3622 162.159 97.2831 161.971 98.1738 161.679L112.52 157.577C113.959 157.164 115.514 156.668 116.354 155.409C116.853 154.649 117.026 153.692 117.155 152.773C117.65 149.277 117.885 145.748 117.856 142.216C117.856 141.051 117.804 139.858 117.382 138.775C116.883 137.524 115.945 136.524 115.247 135.376C113.902 133.168 113.538 130.504 113.206 127.929C112.677 123.829 112.148 119.649 112.879 115.582C113.193 113.837 113.735 112.141 114.094 110.406C114.677 107.581 114.769 104.674 114.368 101.817C114.034 99.4439 113.313 97.0357 111.736 95.2505C110.706 94.0635 109.299 93.2804 107.759 93.0373C105.818 92.784 104.853 93.9387 103.124 94.3667C100.566 95.0023 96.819 92.503 94.359 91.6673Z" fill="black"/>
<path d="M94.359 91.09C93.4783 90.7912 92.4154 90.5227 91.6994 91.1204C91.2827 91.4673 91.1031 92.0244 90.7787 92.4624C89.7034 93.9109 87.5353 93.6399 85.8238 94.1591C83.3064 94.9187 81.7545 97.4814 80.8613 99.9832C76.9193 111.047 81.3129 123.708 77.8823 134.943C76.8844 138.251 75.2202 141.922 76.8519 144.964C77.3958 145.976 78.2815 146.825 78.5535 147.947C78.9227 149.466 78.2117 151.466 79.4542 152.393C79.8409 152.682 80.3324 152.77 80.7964 152.9C83.5933 153.659 85.714 155.893 87.8447 157.881C89.9754 159.868 92.5402 161.79 95.4293 161.661C96.3622 161.582 97.2831 161.394 98.1738 161.102L112.522 157.002C113.962 156.589 115.516 156.093 116.357 154.834C116.856 154.075 117.028 153.117 117.158 152.198C117.653 148.702 117.887 145.173 117.859 141.641C117.859 140.476 117.807 139.284 117.385 138.2C116.886 136.949 115.948 135.949 115.249 134.802C113.904 132.594 113.54 129.93 113.208 127.354C112.679 123.255 112.15 119.074 112.882 115.007C113.196 113.262 113.737 111.566 114.097 109.831C114.679 107.006 114.772 104.099 114.371 101.242C114.037 98.869 113.316 96.4609 111.739 94.6756C110.712 93.4874 109.308 92.7016 107.769 92.4549C105.828 92.2016 104.863 93.3563 103.134 93.7843C100.566 94.4275 96.819 91.9256 94.359 91.09Z" fill="#E0E0E0"/>
<path d="M90.3172 69.2417C90.3172 69.2417 90.6016 80.2038 87.1911 79.9152C83.7805 79.6265 96.8565 98.0916 96.8565 98.0916L107.942 92.0319C107.942 92.0319 101.405 81.3585 105.946 74.7215C110.486 68.0845 90.3172 69.2417 90.3172 69.2417Z" fill="#FDA57D"/>
<path opacity="0.1" d="M71.2707 162.428C71.2707 162.428 68.9978 178.295 63.3118 173.968C57.6258 169.64 58.4791 162.428 58.4791 162.428C58.4791 162.428 69.5641 131.846 68.9953 127.23C68.4264 122.614 87.9269 86.7269 87.9269 86.7269L95.1448 145.693C95.1448 145.693 73.5436 153.773 71.2707 162.428Z" fill="black"/>
<path d="M70.7018 162.428C70.7018 162.428 68.4289 178.295 62.7429 173.968C57.0569 169.64 57.9102 162.428 57.9102 162.428C57.9102 162.428 68.9953 131.846 68.4264 127.23C67.8576 122.614 87.3581 86.7269 87.3581 86.7269L94.576 145.693C94.576 145.693 72.9747 153.773 70.7018 162.428Z" fill="#4D8AF0"/>
<path d="M90.8835 76.1649C90.8835 76.1649 79.7984 83.9541 75.5345 83.6654L72.2213 84.5897C68.9314 85.5074 65.9597 87.3399 63.6413 89.8804C61.323 92.4209 59.7501 95.5684 59.1003 98.9678L59.0479 99.2438C57.3414 108.476 56.775 133.865 56.775 133.865C56.775 133.865 57.0594 140.499 59.9012 142.221L78.0919 154.928C78.0919 154.928 77.523 141.079 84.3467 139.638C91.1704 138.197 82.6402 139.061 82.6402 139.061L70.133 131.558C70.133 131.558 70.4174 120.307 73.828 116.557C77.2386 112.807 89.1769 93.1892 89.1769 93.1892L85.7663 81.0597L90.8835 76.1649Z" fill="#4D8AF0"/>
<path opacity="0.1" d="M103.106 83.668C103.106 83.668 110.092 85.5444 114.977 86.4534C115.742 86.5956 116.462 86.9194 117.079 87.3982C117.697 87.877 118.194 88.4974 118.53 89.2085C120.005 92.3358 122.253 97.9853 121.866 102.7L126.13 119.722L138.355 134.723L127.267 139.924L114.768 125.789L124.997 152.631L105.951 153.482C105.951 153.482 100.265 110.206 101.687 102.994L103.106 83.668Z" fill="black"/>
<path d="M103.675 83.668C103.675 83.668 110.661 85.5444 115.546 86.4534C116.311 86.5956 117.031 86.9194 117.648 87.3982C118.266 87.877 118.763 88.4974 119.099 89.2085C120.574 92.3358 122.821 97.9853 122.435 102.7L126.699 119.722L138.924 134.723L127.839 139.917L115.332 125.779L125.561 152.621L106.517 153.482C106.517 153.482 100.831 110.206 102.253 102.994L103.675 83.668Z" fill="#4D8AF0"/>
<path d="M89.9504 75.2483L93.8699 94.7744L87.4729 98.0916L83.97 80.5027L89.9504 75.2483Z" fill="#E0E0E0"/>
<path d="M100.691 96.2178L103.675 83.668L107.512 91.0242L105.524 97.0838L100.691 96.2178Z" fill="#E0E0E0"/>
<path opacity="0.1" d="M111.492 99.968C111.492 99.968 111.492 119.585 114.049 121.029L111.492 99.968Z" fill="black"/>
<path opacity="0.1" d="M74.8235 104.863C74.8235 104.863 68.923 124.184 70.5821 126.207L74.8235 104.863Z" fill="black"/>
<path opacity="0.1" d="M73.6859 131.413C73.6859 131.413 85.0579 138.96 86.6197 139.081L73.6859 131.413Z" fill="black"/>
<path opacity="0.1" d="M90.5992 70.3964C90.5992 70.3964 90.6441 72.0855 90.4894 74.1188C91.6304 76.8583 93.6448 79.1294 96.2096 80.5681C98.7743 82.0067 101.741 82.5294 104.633 82.0524C104.558 79.8924 104.965 77.7273 106.233 75.8762C110.776 69.2417 90.5992 70.3964 90.5992 70.3964Z" fill="black"/>
<path d="M102.253 81.0724C109.475 81.0724 115.329 75.1306 115.329 67.8009C115.329 60.4713 109.475 54.5294 102.253 54.5294C95.0313 54.5294 89.177 60.4713 89.177 67.8009C89.177 75.1306 95.0313 81.0724 102.253 81.0724Z" fill="#FDA57D"/>
<path opacity="0.1" d="M110.549 62.2224C112.133 62.4376 114.152 61.9008 114.456 60.3105C114.843 58.2974 112.191 56.9908 111.781 54.9928C111.627 54.2332 111.811 53.4532 111.721 52.691C111.544 51.1514 110.317 49.9663 109.069 49.0724C105.119 46.2604 100.314 44.9612 95.5093 45.4057C94.9155 45.464 94.2893 45.5602 93.8302 45.9451C93.3087 46.3807 93.1066 47.0871 92.7499 47.6721C91.5224 49.6827 88.758 49.9207 86.7944 51.1742C84.4816 52.6404 83.3389 55.5195 83.2341 58.2848C83.1293 61.05 83.9078 63.762 84.6762 66.4158C85.3299 68.6746 86.016 70.9916 87.4506 72.8401C88.8852 74.6887 91.2679 75.9801 93.5183 75.423C92.4854 74.6633 93.2364 72.9136 94.3541 72.3007C95.4719 71.6879 96.8491 71.5816 97.8196 70.7308C98.7901 69.8799 99.0671 68.4922 99.374 67.2287C99.7682 65.6333 100.337 64.0178 101.482 62.8529C103.733 60.5486 107.782 61.8451 110.549 62.2224Z" fill="black"/>
<path d="M110.277 61.9337C111.861 62.1489 113.879 61.6121 114.184 60.0219C114.571 58.0087 111.918 56.7021 111.509 54.7041C111.355 53.9445 111.539 53.1645 111.449 52.4023C111.26 50.8501 110.027 49.6599 108.78 48.7711C104.832 45.9599 100.03 44.6599 95.2272 45.1019C94.6334 45.1601 94.0071 45.2563 93.5481 45.6412C93.0266 46.0768 92.8245 46.7833 92.4678 47.3682C91.2402 49.3788 88.4758 49.6169 86.5123 50.8703C84.1995 52.3365 83.0568 55.2156 82.952 57.9809C82.8472 60.7461 83.6257 63.4581 84.3941 66.1119C85.0478 68.3707 85.7339 70.6877 87.1685 72.5362C88.6031 74.3848 90.9858 75.6762 93.2362 75.1191C92.2033 74.3595 92.9543 72.6097 94.072 71.9969C95.1897 71.3841 96.567 71.2777 97.5375 70.4269C98.508 69.576 98.785 68.1884 99.0919 66.9248C99.4861 65.3295 100.055 63.7139 101.2 62.549C103.448 60.2675 107.507 61.5615 110.277 61.9337Z" fill="#72351C"/>
<path opacity="0.1" d="M99.9927 69.5912C99.8006 70.9637 99.374 73.3389 98.5706 74.838C97.5091 76.7879 96.6015 78.8201 95.8561 80.9154C95.8561 80.9154 101.095 85.0303 103.753 87.8411C104.568 88.7224 105.618 89.3446 106.776 89.6322C107.933 89.9199 109.147 89.8607 110.272 89.4617C111.659 88.9553 112.874 87.9601 113.196 86.109C113.695 83.1843 113.101 80.9787 112.532 79.6721C112.26 79.0542 112.118 78.3851 112.116 77.7081C112.114 77.0311 112.253 76.3613 112.522 75.742C112.719 75.2989 112.949 74.9545 113.206 74.8659C113.206 74.8659 108.089 73.7112 107.804 75.1545C107.52 76.5979 103.541 78.0388 102.687 75.4432L102.453 69.7178C102.44 69.3949 102.304 69.0896 102.075 68.8658C101.845 68.6421 101.539 68.5173 101.22 68.5175C100.922 68.5152 100.633 68.6227 100.408 68.8202C100.182 69.0177 100.034 69.2917 99.9927 69.5912Z" fill="black"/>
<path d="M99.9927 69.8799C99.8006 71.2523 99.374 73.6276 98.5706 75.1267C97.5091 77.0766 96.6015 79.1087 95.8561 81.2041C95.8561 81.2041 101.095 85.319 103.753 88.1298C104.568 89.011 105.618 89.6332 106.776 89.9209C107.933 90.2085 109.147 90.1493 110.272 89.7504C111.659 89.2439 112.874 88.2488 113.196 86.3977C113.695 83.473 113.101 81.2674 112.532 79.9607C112.257 79.342 112.113 78.6714 112.11 77.9925C112.107 77.3137 112.245 76.6417 112.515 76.0206C112.712 75.5774 112.942 75.233 113.198 75.1444C113.198 75.1444 108.081 73.9897 107.797 75.4331C107.512 76.8765 103.541 78.33 102.68 75.742L102.445 70.0166C102.432 69.6937 102.297 69.3884 102.067 69.1646C101.837 68.9409 101.531 68.8161 101.213 68.8163C100.917 68.8154 100.632 68.9224 100.408 69.1177C100.184 69.3129 100.036 69.5835 99.9927 69.8799Z" fill="#72351C"/>
<path d="M201.592 151.963C201.592 151.963 196.455 146.744 194.566 139.808H195.008L194.796 139.205H195.008L194.339 137.276C196.233 135.387 197.632 133.556 197.859 132.515C198.244 130.763 198.625 121.282 198.857 114.693L199.062 114.744C199.561 113.878 199.666 112.786 199.631 111.796C199.65 110.684 199.508 109.575 199.212 108.504L198.286 99.097C198.197 98.2315 197.935 97.3935 197.517 96.6338C197.099 95.8742 196.533 95.2088 195.853 94.6782L186.472 87.2916C186.966 86.6157 187.593 86.0517 188.314 85.6355C188.85 85.3469 189.474 85.1494 189.836 84.6556C190.489 83.7617 189.933 82.4297 190.379 81.4118C190.714 80.6521 191.537 80.2267 192.019 79.5455C193.004 78.1502 192.291 76.2232 191.555 74.6785L187.278 65.7068C186.093 63.2226 184.898 60.7182 183.241 58.5304C178.169 51.825 168.409 48.49 160.453 51.397C158.185 52.2251 156.096 53.8153 155.128 56.0538C154.792 56.8338 154.589 57.6846 154.1 58.3759C153.01 59.918 150.882 60.2092 149.36 61.3184C147.416 62.744 146.695 65.4282 146.967 67.8465C147.239 70.2648 148.332 72.4982 149.41 74.6836C150.543 76.9626 151.713 79.31 153.571 81.037C154.44 81.8448 155.503 82.5943 155.78 83.7566C156.017 84.7543 155.597 85.7824 155.685 86.8156C155.721 87.2453 155.845 87.6627 156.049 88.0412C151.85 88.5755 148.871 92.1156 147.536 97.3826C147.454 97.7093 147.421 97.8891 147.421 97.8891L146.83 103.344C146.818 103.579 146.83 103.807 146.83 104.032C146.776 105.26 147.034 106.48 147.579 107.577V126.729L129.615 138.271C126.92 139.486 127.519 149.208 132.908 151.028C138.297 152.849 143.09 141.327 143.09 141.327C146.371 141.104 151.89 136.663 154.856 133.224C155.257 133.881 155.79 134.444 156.421 134.878C154.28 139.775 150.046 149.907 150.722 151.963C151.129 153.203 161.643 153.317 173.007 153.074C173.298 153.238 173.603 153.375 173.918 153.482C175.13 153.892 176.313 153.624 177.411 152.963C189.706 152.606 201.592 151.963 201.592 151.963ZM186.42 114.827C186.67 114.126 187.488 113.743 188.583 113.561V120.948L186.42 114.827ZM185.375 88.8718L185.41 88.8186L185.375 88.8718Z" fill="url(#paint20_linear)"/>
<path d="M158.394 105.595C158.394 105.595 157.825 126.078 157.257 128.676C156.688 131.274 148.449 139.048 144.181 139.35C144.181 139.35 139.632 150.312 134.515 148.582C129.398 146.853 128.829 137.62 131.389 136.465L148.449 125.501V103.574L158.394 105.595Z" fill="#FDB797"/>
<path d="M157.968 130.692C157.968 130.692 150.578 146.848 151.431 149.446C152.284 152.044 199.753 149.446 199.753 149.446C199.753 149.446 190.941 140.502 192.648 130.692H157.968Z" fill="#3AD29F"/>
<path d="M163.654 82.8019C163.654 82.8019 164.792 94.0527 162.801 96.6508C160.81 99.2488 170.759 100.702 171.613 100.702C172.466 100.702 181.563 97.5294 183.267 96.6508C184.971 95.7721 186.393 89.4389 186.393 89.4389C186.393 89.4389 177.865 91.171 175.308 81.0825L163.654 82.8019Z" fill="#FDB797"/>
<path d="M160.675 53.9394C158.522 54.7269 156.536 56.2361 155.617 58.3632C155.298 59.1026 155.106 59.9104 154.642 60.5688C153.607 62.0325 151.586 62.3085 150.151 63.3543C148.305 64.709 147.621 67.2565 147.878 69.5558C148.135 71.855 149.173 73.9745 150.196 76.0408C151.271 78.211 152.384 80.4343 154.148 82.0752C154.971 82.8349 155.982 83.554 156.244 84.6581C156.468 85.6051 156.072 86.5952 156.154 87.5651C156.358 89.9631 159.183 91.0799 161.54 91.3457C162.566 91.4622 163.739 91.4673 164.462 90.7203C164.831 90.3354 165.018 89.8137 165.25 89.3326C165.787 88.2307 166.614 87.3011 167.639 86.6471C168.665 85.9931 169.848 85.6402 171.059 85.6277C172.27 85.6151 173.461 85.9432 174.499 86.5758C175.538 87.2083 176.383 88.1205 176.942 89.2111C177.496 90.2898 177.817 91.6015 178.823 92.2498C180.362 93.2627 182.423 92.075 183.563 90.6114C184.704 89.1478 185.522 87.3195 187.141 86.4408C187.64 86.1648 188.244 85.9799 188.588 85.5089C189.209 84.6606 188.681 83.3945 189.105 82.4297C189.424 81.7029 190.205 81.3054 190.661 80.6571C191.597 79.3328 190.911 77.502 190.22 76.0358L186.158 67.5148C185.033 65.1547 183.898 62.7769 182.326 60.698C177.498 54.3471 168.229 51.1792 160.675 53.9394Z" fill="#6C63FF"/>
<path opacity="0.1" d="M171.044 98.669C171.044 98.669 182.129 98.669 184.973 88.2868L194.304 95.6303C194.948 96.1372 195.484 96.7721 195.879 97.4961C196.274 98.2201 196.519 99.0181 196.6 99.8414L197.48 108.775C197.48 108.775 198.478 112.092 197.338 114.113C197.338 114.113 185.542 111.074 185.258 114.546L193.491 137.914C193.491 137.914 180.699 138.202 177.289 135.888C177.289 135.888 163.359 138.772 159.949 135.599C156.538 132.426 153.128 132.715 155.957 125.501C155.957 125.501 150.271 119.73 152.831 111.652C155.39 103.574 152.973 111.796 152.973 111.796C152.973 111.796 147.452 109.056 147.736 103.85L148.305 98.6563C148.305 98.6563 148.335 98.4841 148.415 98.1752C150.149 91.3381 154.804 87.5398 161.351 89.9606C163.265 90.6645 165.221 89.8568 165.221 89.8568C165.221 89.8568 163.085 99.2463 171.044 98.669Z" fill="black"/>
<path d="M171.044 98.0916C171.044 98.0916 182.129 98.0916 184.973 87.7094L194.304 95.0529C194.948 95.5599 195.484 96.1947 195.879 96.9187C196.274 97.6427 196.519 98.4407 196.6 99.264L197.48 108.198C197.48 108.198 198.478 111.515 197.338 113.536C197.338 113.536 185.542 110.497 185.258 113.969L193.491 137.336C193.491 137.336 180.699 137.625 177.289 135.311C177.289 135.311 163.359 138.195 159.949 135.022C156.538 131.849 153.128 132.138 155.957 124.923C155.957 124.923 150.271 119.152 152.831 111.074C155.39 102.997 152.973 111.219 152.973 111.219C152.973 111.219 147.452 108.479 147.736 103.285L148.305 98.0916C148.305 98.0916 148.335 97.9194 148.415 97.6105C150.149 90.7734 154.804 86.9751 161.351 89.3959C163.265 90.0999 165.221 89.2921 165.221 89.2921C165.221 89.2921 163.085 98.669 171.044 98.0916Z" fill="#252A62"/>
<path d="M197.338 107.902C197.338 107.902 196.769 128.385 196.2 130.983C195.632 133.581 187.388 141.365 183.124 141.656C183.124 141.656 178.576 152.618 173.459 150.889C168.342 149.159 167.773 139.927 170.333 138.772L187.388 127.81V105.876L197.338 107.902Z" fill="#FDB797"/>
<path opacity="0.1" d="M185.125 108.623C185.125 108.623 191.662 113.126 197.35 112.751C197.35 112.751 197.919 105.017 196.213 104.584C194.506 104.151 187.104 104.584 185.125 108.623Z" fill="black"/>
<path d="M185.125 108.335C185.125 108.335 191.662 112.837 197.35 112.462C197.35 112.462 197.919 104.729 196.213 104.296C194.506 103.863 187.104 104.296 185.125 108.335Z" fill="#252A62"/>
<path opacity="0.1" d="M175.877 81.6472L164.223 83.3793C164.223 83.3793 164.485 85.9824 164.537 88.973C166.803 89.9428 169.292 90.2448 171.719 89.8444C174.146 89.444 176.413 88.3574 178.259 86.7092C177.276 85.4912 176.435 83.8452 175.877 81.6472Z" fill="black"/>
<path d="M169.055 89.4389C176.277 89.4389 182.131 83.4971 182.131 76.1674C182.131 68.8378 176.277 62.8959 169.055 62.8959C161.834 62.8959 155.979 68.8378 155.979 76.1674C155.979 83.4971 161.834 89.4389 169.055 89.4389Z" fill="#FDB797"/>
<path opacity="0.1" d="M172.501 73.6149C171.944 73.8274 171.348 73.9139 170.754 73.8681C168.442 73.8529 166.131 73.7685 163.821 73.6149C162.074 73.4959 160.203 73.2857 158.853 72.1487C157.037 70.6294 156.75 67.7502 157.688 65.5522C158.626 63.3542 160.54 61.7336 162.561 60.4877C163.702 59.757 164.938 59.1911 166.233 58.8063C169.976 57.7732 174.127 59.0418 177.104 61.5741C180.08 64.1063 181.979 67.7629 182.985 71.5714C183.331 72.8881 183.778 74.4581 185.063 74.8633C184.207 76.3067 182.119 76.5371 180.622 75.8129C178.411 74.7468 177.279 70.6648 175.295 70.0216C173.082 69.3 174.369 72.7438 172.501 73.6149Z" fill="black"/>
<path d="M172.501 73.3263C171.944 73.5388 171.348 73.6253 170.754 73.5795C168.442 73.5643 166.131 73.4799 163.821 73.3263C162.074 73.2073 160.203 72.9971 158.853 71.8601C157.037 70.3408 156.75 67.4616 157.688 65.2636C158.626 63.0656 160.54 61.445 162.561 60.1991C163.702 59.4704 164.937 58.9062 166.231 58.5228C169.973 57.4896 174.125 58.7583 177.101 61.2905C180.078 63.8228 181.977 67.4793 182.982 71.2878C183.329 72.6046 183.775 74.1746 185.06 74.5798C184.205 76.0231 182.116 76.2536 180.619 75.5294C178.409 74.4633 177.276 70.3813 175.293 69.7381C173.082 69.0113 174.369 72.4501 172.501 73.3263Z" fill="#6C63FF"/>
<path opacity="0.1" d="M155.837 124.779C160.101 123.623 164.495 123.041 168.908 123.047L155.837 124.779Z" fill="black"/>
<path opacity="0.1" d="M185.125 109.201C185.125 109.201 180.861 112.373 181.999 114.106L185.125 109.201Z" fill="black"/>
<g opacity="0.7">
<path opacity="0.7" d="M214.393 140.646H74.8235V153.034H82.947V155.45V192H206.559V155.45V153.034H214.393V140.646Z" fill="url(#paint21_linear)"/>
</g>
<path d="M205.297 147.86H84.2046V192.003H205.297V147.86Z" fill="#E0E0E0"/>
<path opacity="0.1" d="M205.297 150.167H84.2046V157.09H205.297V150.167Z" fill="black"/>
<path d="M212.971 142.955H76.2457V154.784H212.971V142.955Z" fill="#E0E0E0"/>
<path d="M120.371 140.043H97.4628C96.5671 140.043 95.8411 140.78 95.8411 141.689V142.148C95.8411 143.057 96.5671 143.794 97.4628 143.794H120.371C121.267 143.794 121.993 143.057 121.993 142.148V141.689C121.993 140.78 121.267 140.043 120.371 140.043Z" fill="#535461"/>
<g opacity="0.7">
<path opacity="0.7" d="M169.716 98.2284H118.8C114.911 98.2284 111.759 101.428 111.759 105.374V136.696C111.759 140.642 114.911 143.842 118.8 143.842H169.716C173.605 143.842 176.757 140.642 176.757 136.696V105.374C176.757 101.428 173.605 98.2284 169.716 98.2284Z" fill="url(#paint22_linear)"/>
</g>
<path d="M167.793 99.0691H119.613C115.915 99.0691 112.917 102.112 112.917 105.866V137.043C112.917 140.796 115.915 143.839 119.613 143.839H167.793C171.491 143.839 174.489 140.796 174.489 137.043V105.866C174.489 102.112 171.491 99.0691 167.793 99.0691Z" fill="#3E3F49"/>
<path d="M168.646 99.0691H120.466C116.768 99.0691 113.77 102.112 113.77 105.866V137.043C113.77 140.796 116.768 143.839 120.466 143.839H168.646C172.344 143.839 175.342 140.796 175.342 137.043V105.866C175.342 102.112 172.344 99.0691 168.646 99.0691Z" fill="#535461"/>
<path d="M147.432 123.168C148.531 123.168 149.423 122.264 149.423 121.148C149.423 120.032 148.531 119.127 147.432 119.127C146.332 119.127 145.441 120.032 145.441 121.148C145.441 122.264 146.332 123.168 147.432 123.168Z" fill="#E0E0E0"/>
<path opacity="0.1" d="M66.0114 148.724C66.0114 148.724 67.693 151.228 72.6804 151.996L66.0114 148.724Z" fill="black"/>
<path opacity="0.2" d="M110.526 20.258H92.8121V10.129H110.526V20.258ZM93.5606 19.4983H109.778V10.8886H93.5606V19.4983Z" fill="#6C63FF"/>
<path opacity="0.2" d="M128.24 20.258H110.526V10.129H128.24V20.258ZM111.275 19.4983H127.492V10.8886H111.275V19.4983Z" fill="#6C63FF"/>
<path opacity="0.2" d="M145.955 20.258H128.24V10.129H145.955V20.258ZM128.989 19.4983H145.206V10.8886H128.989V19.4983Z" fill="#6C63FF"/>
<path opacity="0.2" d="M163.669 20.258H145.955V10.129H163.669V20.258ZM146.703 19.4983H162.92V10.8886H146.703V19.4983Z" fill="#6C63FF"/>
<path opacity="0.2" d="M145.955 10.129H128.24V0H145.955V10.129ZM128.989 9.36931H145.206V0.759674H128.989V9.36931Z" fill="#6C63FF"/>
<path opacity="0.2" d="M128.24 10.129H110.526V0H128.24V10.129ZM111.275 9.36931H127.492V0.759674H111.275V9.36931Z" fill="#6C63FF"/>
<path opacity="0.2" d="M44.9091 20.258H27.1949V10.129H44.9091V20.258ZM27.9434 19.4983H44.1606V10.8886H27.9434V19.4983Z" fill="#6C63FF"/>
<path opacity="0.2" d="M62.6232 20.258H44.9091V10.129H62.6232V20.258ZM45.6575 19.4983H61.8747V10.8886H45.6575V19.4983Z" fill="#6C63FF"/>
<path opacity="0.2" d="M62.6232 10.129H44.9091V0H62.6232V10.129ZM45.6575 9.36931H61.8747V0.759674H45.6575V9.36931Z" fill="#6C63FF"/>
<path opacity="0.2" d="M199.596 20.258H181.882V10.129H199.596V20.258ZM182.63 19.4983H198.848V10.8886H182.63V19.4983Z" fill="#6C63FF"/>
<path opacity="0.2" d="M217.31 20.258H199.596V10.129H217.31V20.258ZM200.344 19.4983H216.562V10.8886H200.344V19.4983Z" fill="#6C63FF"/>
<path opacity="0.2" d="M217.31 10.129H199.596V0H217.31V10.129ZM200.344 9.36931H216.562V0.759674H200.344V9.36931Z" fill="#6C63FF"/>
</g>
<defs>
<linearGradient id="paint0_linear" x1="66.0164" y1="171.456" x2="97.4054" y2="171.456" gradientUnits="userSpaceOnUse">
<stop stop-color="#808080" stop-opacity="0.25"/>
<stop offset="0.54" stop-color="#808080" stop-opacity="0.12"/>
<stop offset="1" stop-color="#808080" stop-opacity="0.1"/>
</linearGradient>
<linearGradient id="paint1_linear" x1="17739.6" y1="41645.8" x2="25303.1" y2="41645.8" gradientUnits="userSpaceOnUse">
<stop stop-color="#808080" stop-opacity="0.25"/>
<stop offset="0.54" stop-color="#808080" stop-opacity="0.12"/>
<stop offset="1" stop-color="#808080" stop-opacity="0.1"/>
</linearGradient>
<linearGradient id="paint2_linear" x1="17739.6" y1="41482.6" x2="25303.1" y2="41482.6" gradientUnits="userSpaceOnUse">
<stop stop-color="#808080" stop-opacity="0.25"/>
<stop offset="0.54" stop-color="#808080" stop-opacity="0.12"/>
<stop offset="1" stop-color="#808080" stop-opacity="0.1"/>
</linearGradient>
<linearGradient id="paint3_linear" x1="10081" y1="11794" x2="12056.6" y2="11794" gradientUnits="userSpaceOnUse">
<stop stop-color="#808080" stop-opacity="0.25"/>
<stop offset="0.54" stop-color="#808080" stop-opacity="0.12"/>
<stop offset="1" stop-color="#808080" stop-opacity="0.1"/>
</linearGradient>
<linearGradient id="paint4_linear" x1="12774.5" y1="53107.9" x2="18635.6" y2="53107.9" gradientUnits="userSpaceOnUse">
<stop stop-color="#808080" stop-opacity="0.25"/>
<stop offset="0.54" stop-color="#808080" stop-opacity="0.12"/>
<stop offset="1" stop-color="#808080" stop-opacity="0.1"/>
</linearGradient>
<linearGradient id="paint5_linear" x1="12682.5" y1="53107.9" x2="18543.1" y2="53107.9" gradientUnits="userSpaceOnUse">
<stop stop-color="#808080" stop-opacity="0.25"/>
<stop offset="0.54" stop-color="#808080" stop-opacity="0.12"/>
<stop offset="1" stop-color="#808080" stop-opacity="0.1"/>
</linearGradient>
<linearGradient id="paint6_linear" x1="11627.8" y1="42529.3" x2="16688.4" y2="42529.3" gradientUnits="userSpaceOnUse">
<stop stop-color="#808080" stop-opacity="0.25"/>
<stop offset="0.54" stop-color="#808080" stop-opacity="0.12"/>
<stop offset="1" stop-color="#808080" stop-opacity="0.1"/>
</linearGradient>
<linearGradient id="paint7_linear" x1="19786.5" y1="38604.2" x2="25706.3" y2="38604.2" gradientUnits="userSpaceOnUse">
<stop stop-color="#808080" stop-opacity="0.25"/>
<stop offset="0.54" stop-color="#808080" stop-opacity="0.12"/>
<stop offset="1" stop-color="#808080" stop-opacity="0.1"/>
</linearGradient>
<linearGradient id="paint8_linear" x1="19877.3" y1="38604.2" x2="25796.7" y2="38604.2" gradientUnits="userSpaceOnUse">
<stop stop-color="#808080" stop-opacity="0.25"/>
<stop offset="0.54" stop-color="#808080" stop-opacity="0.12"/>
<stop offset="1" stop-color="#808080" stop-opacity="0.1"/>
</linearGradient>
<linearGradient id="paint9_linear" x1="3529.95" y1="7957.83" x2="3956.13" y2="7957.83" gradientUnits="userSpaceOnUse">
<stop stop-color="#808080" stop-opacity="0.25"/>
<stop offset="0.54" stop-color="#808080" stop-opacity="0.12"/>
<stop offset="1" stop-color="#808080" stop-opacity="0.1"/>
</linearGradient>
<linearGradient id="paint10_linear" x1="2972.84" y1="4920.68" x2="3175.35" y2="4920.68" gradientUnits="userSpaceOnUse">
<stop stop-color="#808080" stop-opacity="0.25"/>
<stop offset="0.54" stop-color="#808080" stop-opacity="0.12"/>
<stop offset="1" stop-color="#808080" stop-opacity="0.1"/>
</linearGradient>
<linearGradient id="paint11_linear" x1="1588.65" y1="11005.8" x2="1617.1" y2="11005.8" gradientUnits="userSpaceOnUse">
<stop stop-color="#808080" stop-opacity="0.25"/>
<stop offset="0.54" stop-color="#808080" stop-opacity="0.12"/>
<stop offset="1" stop-color="#808080" stop-opacity="0.1"/>
</linearGradient>
<linearGradient id="paint12_linear" x1="1871.38" y1="11609.6" x2="1960.51" y2="11609.6" gradientUnits="userSpaceOnUse">
<stop stop-color="#808080" stop-opacity="0.25"/>
<stop offset="0.54" stop-color="#808080" stop-opacity="0.12"/>
<stop offset="1" stop-color="#808080" stop-opacity="0.1"/>
</linearGradient>
<linearGradient id="paint13_linear" x1="5412.06" y1="4896.78" x2="6139.58" y2="4896.78" gradientUnits="userSpaceOnUse">
<stop stop-color="#808080" stop-opacity="0.25"/>
<stop offset="0.54" stop-color="#808080" stop-opacity="0.12"/>
<stop offset="1" stop-color="#808080" stop-opacity="0.1"/>
</linearGradient>
<linearGradient id="paint14_linear" x1="8064.38" y1="4531.31" x2="9235.54" y2="4531.31" gradientUnits="userSpaceOnUse">
<stop stop-color="#808080" stop-opacity="0.25"/>
<stop offset="0.54" stop-color="#808080" stop-opacity="0.12"/>
<stop offset="1" stop-color="#808080" stop-opacity="0.1"/>
</linearGradient>
<linearGradient id="paint15_linear" x1="9785.93" y1="7115.74" x2="12760" y2="7115.74" gradientUnits="userSpaceOnUse">
<stop stop-color="#808080" stop-opacity="0.25"/>
<stop offset="0.54" stop-color="#808080" stop-opacity="0.12"/>
<stop offset="1" stop-color="#808080" stop-opacity="0.1"/>
</linearGradient>
<linearGradient id="paint16_linear" x1="14287.8" y1="9360.47" x2="18540.3" y2="9360.47" gradientUnits="userSpaceOnUse">
<stop stop-color="#808080" stop-opacity="0.25"/>
<stop offset="0.54" stop-color="#808080" stop-opacity="0.12"/>
<stop offset="1" stop-color="#808080" stop-opacity="0.1"/>
</linearGradient>
<linearGradient id="paint17_linear" x1="14244.5" y1="9323.11" x2="18495.6" y2="9323.11" gradientUnits="userSpaceOnUse">
<stop stop-color="#808080" stop-opacity="0.25"/>
<stop offset="0.54" stop-color="#808080" stop-opacity="0.12"/>
<stop offset="1" stop-color="#808080" stop-opacity="0.1"/>
</linearGradient>
<linearGradient id="paint18_linear" x1="9027.47" y1="8304.1" x2="10364.6" y2="8304.1" gradientUnits="userSpaceOnUse">
<stop stop-color="#808080" stop-opacity="0.25"/>
<stop offset="0.54" stop-color="#808080" stop-opacity="0.12"/>
<stop offset="1" stop-color="#808080" stop-opacity="0.1"/>
</linearGradient>
<linearGradient id="paint19_linear" x1="9027.47" y1="8330.06" x2="10364.6" y2="8330.06" gradientUnits="userSpaceOnUse">
<stop stop-color="#808080" stop-opacity="0.25"/>
<stop offset="0.54" stop-color="#808080" stop-opacity="0.12"/>
<stop offset="1" stop-color="#808080" stop-opacity="0.1"/>
</linearGradient>
<linearGradient id="paint20_linear" x1="56433.9" y1="70084.4" x2="56433.9" y2="27918.7" gradientUnits="userSpaceOnUse">
<stop stop-color="#808080" stop-opacity="0.25"/>
<stop offset="0.54" stop-color="#808080" stop-opacity="0.12"/>
<stop offset="1" stop-color="#808080" stop-opacity="0.1"/>
</linearGradient>
<linearGradient id="paint21_linear" x1="80969.6" y1="39078.2" x2="80969.6" y2="28663.7" gradientUnits="userSpaceOnUse">
<stop stop-color="#808080" stop-opacity="0.25"/>
<stop offset="0.54" stop-color="#808080" stop-opacity="0.12"/>
<stop offset="1" stop-color="#808080" stop-opacity="0.1"/>
</linearGradient>
<linearGradient id="paint22_linear" x1="37693.8" y1="26008.5" x2="37693.8" y2="17792.1" gradientUnits="userSpaceOnUse">
<stop stop-color="#808080" stop-opacity="0.25"/>
<stop offset="0.54" stop-color="#808080" stop-opacity="0.12"/>
<stop offset="1" stop-color="#808080" stop-opacity="0.1"/>
</linearGradient>
<clipPath id="clip0">
<rect width="247" height="192" fill="white"/>
</clipPath>
</defs>
</svg>
